<?xml version="1.0" encoding="utf-8"?>
<!-- Generator: Moho 13.0.3 build 643 -->
<!DOCTYPE svg PUBLIC "-//W3C//DTD SVG 1.1//EN" "http://www.w3.org/Graphics/SVG/1.1/DTD/svg11.dtd">
<svg version="1.1" id="Frame_3" xmlns="http://www.w3.org/2000/svg" xmlns:xlink="http://www.w3.org/1999/xlink" width="720px" height="720px">
<g id="Layer_10">
<path id="_last_brush_shape_" fill="#ffffff" fill-rule="evenodd" fill-opacity="0.607843" stroke="none" d="M 345.746 531.415 C 349.759 533.514 349.918 538.645 353.337 540.528 C 356.922 542.502 360.838 541.365 364.782 544.775 C 373.717 552.499 366.971 563.394 357.380 566.331 C 345.431 569.990 337.325 563.367 326.735 559.893 C 319.274 557.445 311.737 557.765 304.784 553.583 C 301.346 551.515 299.707 547.013 296.085 545.391 C 284.843 540.357 271.068 538.205 259.954 532.742 C 250.641 528.165 247.078 516.573 255.812 509.936 C 256.277 509.583 256.794 509.255 257.362 509.120 C 263.018 507.773 266.436 511.382 271.722 511.891 C 280.413 512.727 291.059 507.399 299.296 511.521 C 303.515 513.633 304.473 519.533 308.977 521.194 C 313.557 522.882 317.932 518.683 322.686 521.994 C 325.872 524.213 326.377 529.119 329.948 530.862 C 334.931 533.293 340.702 528.777 345.746 531.415 M 435.176 494.774 C 440.351 487.647 445.305 479.667 451.688 473.554 C 455.610 469.799 461.685 467.836 464.586 463.065 C 469.956 454.235 474.257 432.776 488.404 433.295 C 489.198 433.382 490.023 433.606 490.796 433.868 C 491.530 434.049 492.222 434.302 492.778 434.519 C 493.100 434.628 493.604 434.829 493.604 434.829 C 496.359 428.907 499.451 423.681 504.679 419.631 C 505.219 419.213 505.832 418.837 506.499 418.696 C 509.617 418.037 511.912 418.038 514.644 419.761 C 515.256 420.211 515.825 420.751 516.262 421.197 C 516.582 421.495 516.984 421.917 516.984 421.917 C 516.984 421.917 517.479 421.582 517.882 421.341 C 518.438 420.978 519.152 420.557 519.854 420.228 C 530.164 416.388 535.684 430.555 530.700 438.039 C 530.700 438.039 532.313 438.844 532.313 438.844 C 532.313 438.844 532.770 438.283 533.155 437.879 C 533.674 437.269 534.360 436.564 535.072 436.018 C 547.100 429.027 538.491 455.177 533.434 459.446 C 522.159 468.965 510.494 460.817 498.456 466.276 C 495.054 467.819 494.409 472.609 492.009 475.150 C 488.547 478.814 483.362 480.318 479.917 484.025 C 467.870 496.990 461.042 523.404 436.384 513.881 C 427.252 510.354 430.964 500.576 435.176 494.774 M 174.765 395.144 C 174.552 388.380 169.650 384.066 168.602 377.716 C 167.364 370.223 173.093 365.862 174.239 359.167 C 175.427 352.218 170.308 345.797 170.648 338.872 C 171.021 331.290 184.928 315.332 191.915 312.087 C 192.439 311.844 193.000 311.660 193.571 311.581 C 200.237 310.663 209.716 313.125 210.883 321.144 C 211.549 325.718 207.903 327.906 207.886 331.991 C 207.851 340.458 207.780 347.733 206.493 355.927 C 205.992 359.119 202.137 361.419 202.465 364.799 C 202.780 368.043 206.477 369.668 206.849 373.155 C 207.601 380.206 201.734 384.275 201.670 390.604 C 201.592 398.283 205.308 407.266 206.519 414.794 C 207.741 422.394 201.958 429.127 195.055 431.362 C 170.902 439.182 175.173 408.117 174.765 395.144 M 489.672 248.012 C 489.935 258.018 479.583 265.640 470.144 261.464 C 463.471 258.512 463.111 250.713 458.729 245.851 C 455.760 242.557 451.755 244.923 448.363 242.927 C 444.790 240.824 444.232 235.843 441.101 233.253 C 433.877 227.279 424.261 233.097 417.802 225.926 C 417.243 225.241 416.741 224.450 416.285 223.631 C 415.780 222.875 415.343 222.056 414.964 221.295 C 413.907 219.240 414.328 220.092 413.677 218.750 C 412.054 219.432 413.079 219.012 410.593 219.966 C 409.746 220.302 408.814 220.600 407.939 220.799 C 399.954 222.082 388.250 218.129 383.891 210.940 C 379.644 203.933 377.275 192.293 387.017 189.241 C 387.551 189.074 388.108 188.969 388.666 188.924 C 397.286 188.222 401.190 192.688 408.828 194.560 C 415.881 196.288 423.708 194.671 431.074 196.482 C 451.989 201.623 469.004 216.904 479.422 234.675 C 482.371 239.706 489.500 241.427 489.672 248.012 M 329.180 164.926 C 329.645 164.826 330.120 164.765 330.595 164.757 C 336.539 164.668 337.139 168.278 341.887 170.397 C 345.930 172.202 369.883 171.374 356.914 183.744 C 349.425 190.888 339.743 183.256 331.217 186.231 C 318.365 190.717 304.617 193.149 292.652 200.077 C 281.090 206.771 268.186 220.060 254.079 219.886 C 232.399 219.619 255.926 199.605 261.258 195.430 C 264.975 192.521 270.515 193.383 274.714 191.607 C 278.326 190.079 278.500 186.275 281.413 184.132 C 285.323 181.256 291.034 183.391 295.120 180.901 C 297.951 179.176 298.925 175.777 302.226 174.616 C 307.501 172.761 313.939 176.670 318.503 174.439 C 323.410 172.042 322.967 166.271 329.180 164.926 Z"/>
</g>
</svg>
