<?xml version="1.0" encoding="utf-8"?>
<!-- Generator: Moho 13.0.3 build 643 -->
<!DOCTYPE svg PUBLIC "-//W3C//DTD SVG 1.1//EN" "http://www.w3.org/Graphics/SVG/1.1/DTD/svg11.dtd">
<svg version="1.1" id="Frame_2" xmlns="http://www.w3.org/2000/svg" xmlns:xlink="http://www.w3.org/1999/xlink" width="720px" height="720px">
<g id="Layer_10">
<path id="_last_brush_shape_" fill="#ffffff" fill-rule="evenodd" fill-opacity="0.607843" stroke="none" d="M 292.837 560.704 C 275.934 553.156 255.202 549.187 242.833 532.495 C 234.859 521.734 231.646 503.679 245.157 496.028 C 245.682 495.731 246.257 495.487 246.854 495.400 C 261.264 493.291 256.066 506.224 264.599 511.522 C 268.474 513.928 273.468 510.453 277.502 512.325 C 281.081 513.986 282.109 518.547 285.568 520.387 C 288.539 521.967 292.269 520.422 295.245 521.997 C 298.325 523.627 299.162 528.042 302.505 529.252 C 309.927 531.940 314.755 529.820 317.692 539.525 C 317.918 540.390 318.079 541.315 318.201 542.191 C 318.569 544.746 318.434 543.683 318.638 545.375 C 319.971 545.525 321.296 545.712 322.624 545.898 C 323.473 546.004 324.347 546.148 325.247 546.319 C 326.217 546.453 327.213 546.648 328.217 546.873 C 329.251 547.033 330.312 547.282 331.357 547.564 C 332.412 547.755 333.470 548.060 334.487 548.399 C 335.484 548.611 336.492 548.978 337.427 549.383 C 338.440 549.699 339.257 550.093 340.000 550.521 C 356.252 560.939 322.468 573.347 314.148 572.965 C 303.529 572.477 301.077 564.384 292.837 560.704 M 485.555 521.942 C 480.098 531.380 494.482 538.618 495.238 545.324 C 497.413 564.619 473.806 553.082 466.909 553.015 C 462.110 552.968 457.242 555.050 452.502 553.401 C 434.461 547.123 441.500 519.990 449.048 508.653 C 456.832 496.960 451.537 484.663 459.736 474.372 C 472.193 458.737 498.529 445.441 504.299 424.975 C 507.225 414.599 488.527 411.169 487.532 398.365 C 486.531 385.472 500.388 374.487 510.508 369.125 C 511.523 368.587 512.604 368.118 513.734 367.912 C 525.420 365.774 543.939 370.538 536.902 386.341 C 536.458 387.190 535.906 388.004 535.446 388.637 C 535.143 389.094 534.707 389.678 534.707 389.679 C 536.449 391.159 535.397 390.240 537.817 392.482 C 545.204 401.167 537.494 403.803 537.132 411.450 C 536.798 418.510 543.038 421.267 538.940 429.695 C 538.329 430.796 537.553 431.877 536.770 432.865 C 536.098 433.835 535.377 434.710 534.783 435.408 C 534.457 435.820 533.914 436.450 533.914 436.450 C 538.634 445.881 524.008 471.354 514.741 475.831 C 510.814 477.257 512.489 476.696 509.734 477.583 C 511.969 478.240 510.566 477.816 513.926 478.894 C 515.079 479.252 516.302 479.705 517.399 480.192 C 551.651 497.446 491.194 512.188 485.555 521.942 M 206.350 442.353 C 199.020 437.912 201.154 433.369 197.644 427.677 C 194.768 423.012 187.392 421.995 184.042 416.514 C 181.239 411.928 183.991 406.375 181.509 401.877 C 178.984 397.302 175.566 395.443 174.248 389.783 C 170.236 372.568 180.731 346.584 198.151 341.023 C 198.766 340.827 199.400 340.682 200.038 340.585 C 202.858 340.156 205.672 339.868 208.530 340.059 C 233.418 341.722 216.679 368.274 208.919 378.483 C 210.039 379.277 209.333 378.769 211.039 380.037 C 211.670 380.496 212.334 381.028 212.969 381.588 C 213.631 382.105 214.281 382.705 214.842 383.306 C 219.238 388.652 214.883 392.722 216.989 397.834 C 219.439 403.784 226.662 401.867 226.149 410.395 C 225.859 415.228 220.534 417.034 220.105 421.663 C 220.089 422.138 220.124 422.624 220.164 423.009 C 220.181 423.280 220.222 423.638 220.222 423.638 C 221.768 424.006 220.800 423.767 223.125 424.386 C 223.923 424.589 224.769 424.858 225.529 425.159 C 233.878 428.993 232.899 438.389 225.690 442.952 C 219.696 446.746 212.284 445.949 206.350 442.353 M 453.268 185.264 C 461.369 183.930 471.602 186.889 475.783 194.548 C 477.451 197.603 476.319 202.566 479.012 205.030 C 494.984 219.646 516.681 224.336 530.130 243.748 C 535.666 251.739 536.685 278.331 525.029 281.338 C 511.006 284.956 504.440 267.387 494.349 261.473 C 486.083 256.628 479.173 254.417 472.062 247.342 C 466.999 242.304 459.361 230.615 452.407 228.423 C 440.704 224.734 432.156 229.519 421.670 218.711 C 409.771 206.447 410.601 187.429 426.929 179.829 C 427.582 179.525 428.290 179.305 429.008 179.240 C 433.723 178.812 437.812 179.307 441.374 182.578 C 442.057 183.295 442.669 184.155 443.204 185.006 C 443.760 185.755 444.225 186.533 444.589 187.170 C 444.812 187.524 445.138 188.105 445.138 188.105 C 446.911 187.366 448.700 186.716 450.510 186.071 C 451.398 185.743 452.359 185.465 453.268 185.264 M 292.423 140.091 C 293.041 139.908 293.684 139.787 294.328 139.765 C 312.918 139.140 340.311 156.053 321.089 175.211 C 308.782 187.478 293.109 185.239 278.215 191.379 C 259.079 199.269 243.159 224.766 220.162 218.814 C 208.652 215.834 199.111 202.751 208.426 192.368 C 213.027 187.240 220.209 186.740 225.151 181.382 C 229.008 177.199 232.197 172.455 235.516 167.850 C 237.058 165.711 240.305 158.917 240.306 161.554 C 258.883 156.543 274.260 145.463 292.423 140.091 Z"/>
</g>
</svg>
