<?xml version="1.0" encoding="utf-8"?>
<!-- Generator: Moho 12.3 build 22017 -->
<!DOCTYPE svg PUBLIC "-//W3C//DTD SVG 1.1//EN" "http://www.w3.org/Graphics/SVG/1.1/DTD/svg11.dtd">
<svg version="1.1" id="Frame_0" xmlns="http://www.w3.org/2000/svg" xmlns:xlink="http://www.w3.org/1999/xlink" width="1280px" height="400px">
<g id="Layer_5">
<g id="Layer_1">
<path fill="#f0f0ea" fill-rule="evenodd" stroke="none" d="M -540.290 836.297 C -3.952 849.029 1147.528 848.694 1809.204 836.297 C 1583.500 434.666 1128.592 263.410 634.953 263.428 C 141.262 263.446 -313.684 434.742 -540.290 836.297 Z"/>
<path fill="#ddddd8" fill-rule="evenodd" stroke="none" d="M -486.241 818.316 C 26.232 818.316 1125.910 818.316 1758.076 818.316 C 1541.776 435.679 1107.355 274.571 636.392 274.588 C 165.378 274.605 -269.079 435.752 -486.241 818.316 Z"/>
<path fill="#bebeba" fill-rule="evenodd" stroke="none" d="M 265.172 339.646 C 289.416 339.646 298.180 348.327 298.180 354.908 C 298.180 361.489 289.416 370.169 265.172 370.169 C 240.929 370.169 232.165 361.488 232.165 354.908 C 232.164 348.327 240.929 339.646 265.172 339.646 Z"/>
<path fill="#bebeba" fill-rule="evenodd" stroke="none" d="M 568.985 292.796 C 585.009 292.796 592.055 296.790 592.055 299.540 C 592.055 302.290 585.009 306.283 568.985 306.283 C 552.962 306.283 545.915 302.290 545.915 299.540 C 545.915 296.790 552.962 292.796 568.985 292.796 Z"/>
<path fill="#bebeba" fill-rule="evenodd" stroke="none" d="M 604.832 363.071 C 617.409 363.071 623.288 365.413 623.288 366.975 C 623.288 368.537 617.409 370.879 604.832 370.879 C 592.256 370.879 586.376 368.537 586.376 366.975 C 586.376 365.413 592.256 363.071 604.832 363.071 Z"/>
<path fill="#bebeba" fill-rule="evenodd" stroke="none" d="M 482.029 330.418 C 497.598 330.418 503.325 335.888 503.325 340.001 C 503.325 344.114 497.598 349.584 482.029 349.584 C 466.461 349.584 460.734 344.114 460.734 340.001 C 460.734 335.888 466.461 330.418 482.029 330.418 Z"/>
<path fill="#bebeba" fill-rule="evenodd" stroke="none" d="M 918.583 316.221 C 945.861 316.221 954.785 328.148 954.785 338.226 C 954.785 348.305 945.861 360.232 918.583 360.232 C 891.305 360.232 882.381 348.305 882.381 338.226 C 882.381 328.148 891.305 316.221 918.583 316.221 Z"/>
<path fill="#bebeba" fill-rule="evenodd" stroke="none" d="M 798.620 297.055 C 808.123 297.055 812.107 299.761 812.107 301.669 C 812.107 303.578 808.123 306.283 798.620 306.283 C 789.117 306.283 785.133 303.578 785.133 301.669 C 785.133 299.761 789.117 297.055 798.620 297.055 Z"/>
<path fill="#bebeba" fill-rule="evenodd" stroke="none" d="M 1066.586 358.102 C 1084.780 358.102 1092.495 367.295 1092.495 375.493 C 1092.495 383.691 1084.780 392.884 1066.586 392.884 C 1048.391 392.884 1040.676 383.691 1040.676 375.493 C 1040.676 367.295 1048.391 358.102 1066.586 358.102 Z"/>
<path fill="#bebeba" fill-rule="evenodd" stroke="none" d="M 721.602 296.346 C 731.049 296.346 734.734 299.421 734.734 301.669 C 734.734 303.918 731.049 306.993 721.602 306.993 C 712.155 306.993 708.470 303.918 708.470 301.669 C 708.470 299.421 712.155 296.346 721.602 296.346 Z"/>
<path fill="#bebeba" fill-rule="evenodd" stroke="none" d="M 814.236 356.682 C 863.444 356.682 885.221 368.680 885.221 376.913 C 885.221 385.146 863.444 397.143 814.236 397.143 C 765.029 397.143 743.252 385.146 743.252 376.913 C 743.252 368.680 765.029 356.682 814.236 356.682 Z"/>
</g>
<g id="Layer_3">
<path fill="#a0abb7" fill-rule="evenodd" stroke="none" d="M 331.396 52.437 C 331.400 52.437 344.700 50.860 367.582 60.025 C 391.051 69.425 399.786 80.042 399.789 80.044 C 399.785 80.045 383.740 102.937 355.399 91.497 C 327.057 80.057 331.399 52.440 331.396 52.437 Z"/>
<path fill="#a0abb7" fill-rule="evenodd" stroke="none" d="M 273.028 227.516 C 273.023 227.520 221.539 266.169 221.534 266.172 C 221.533 266.179 211.324 333.854 211.323 333.861 C 211.322 333.861 199.279 335.418 199.278 335.418 C 199.278 335.419 196.749 346.410 196.749 346.411 C 196.753 346.411 236.377 341.288 236.381 341.287 C 236.380 341.286 229.197 331.551 229.196 331.550 C 229.195 331.550 221.814 332.505 221.814 332.505 C 221.814 332.499 229.619 270.664 229.620 270.658 C 229.625 270.655 276.711 237.710 276.716 237.707 C 276.716 237.706 273.029 227.517 273.028 227.516 Z"/>
<path fill="#a0abb7" fill-rule="evenodd" stroke="none" d="M 384.154 213.150 C 384.160 213.152 443.780 237.437 443.786 237.439 C 443.789 237.446 470.873 300.299 470.875 300.306 C 470.877 300.305 482.919 298.748 482.920 298.748 C 482.921 298.749 488.162 308.736 488.162 308.737 C 488.158 308.737 448.534 313.860 448.530 313.860 C 448.531 313.859 453.002 302.617 453.002 302.616 C 453.003 302.616 460.384 301.662 460.385 301.662 C 460.382 301.656 437.109 243.839 437.107 243.834 C 437.101 243.832 383.184 223.945 383.179 223.943 C 383.179 223.942 384.154 213.151 384.154 213.150 Z"/>
<path fill="#a0abb7" fill-rule="evenodd" stroke="none" d="M 282.909 242.832 C 282.920 242.830 393.635 228.517 393.646 228.515 C 393.647 228.518 396.961 254.157 396.962 254.160 C 396.951 254.161 286.236 268.474 286.225 268.476 C 286.224 268.473 282.910 242.834 282.909 242.832 Z"/>
<path fill="#bbc6d1" fill-rule="evenodd" stroke="none" d="M 256.682 143.854 C 256.685 143.850 286.239 97.156 286.242 97.151 C 286.245 97.151 321.250 92.625 321.253 92.625 C 321.257 92.624 356.263 88.099 356.266 88.098 C 356.270 88.102 396.727 125.745 396.731 125.749 C 396.732 125.759 410.719 233.948 410.720 233.959 C 410.706 233.961 270.685 252.063 270.671 252.065 C 270.670 252.054 256.683 143.865 256.682 143.854 Z"/>
<path fill="#e7eaec" fill-rule="evenodd" stroke="none" d="M 267.812 151.162 C 267.820 151.161 343.351 141.397 343.359 141.396 C 343.360 141.402 351.695 205.879 351.696 205.885 C 351.689 205.886 276.157 215.651 276.149 215.652 C 276.149 215.646 267.813 151.169 267.812 151.162 Z"/>
<path fill="#494f55" fill-rule="evenodd" stroke="none" d="M 274.377 155.445 C 274.383 155.444 338.093 147.207 338.099 147.206 C 338.100 147.212 345.131 201.598 345.132 201.603 C 345.125 201.604 281.416 209.840 281.409 209.841 C 281.409 209.836 274.378 155.450 274.377 155.445 Z"/>
<path fill="#a0abb7" fill-rule="evenodd" stroke="none" d="M 357.386 221.206 C 357.388 221.213 378.592 289.316 378.595 289.323 C 378.595 289.329 384.049 349.844 384.049 349.850 C 384.048 349.850 372.006 351.407 372.004 351.407 C 372.004 351.408 369.475 362.399 369.475 362.400 C 369.479 362.399 409.103 357.277 409.107 357.276 C 409.107 357.275 401.923 347.540 401.923 347.539 C 401.922 347.539 394.541 348.493 394.540 348.494 C 394.540 348.488 388.698 288.023 388.698 288.017 C 388.695 288.010 365.692 218.850 365.690 218.843 C 365.689 218.843 357.387 221.206 357.386 221.206 Z"/>
<path fill="none" stroke="#494f55" stroke-width="2" stroke-linejoin="round" d="M 366.488 147.407 C 366.488 147.406 365.468 139.513 365.468 139.512 C 365.468 139.512 371.518 138.730 371.519 138.730 M 377.570 137.948 C 377.570 137.948 383.619 137.166 383.620 137.166 C 383.620 137.166 389.670 136.383 389.671 136.383 C 389.671 136.384 390.691 144.277 390.691 144.278 M 392.733 160.068 C 392.733 160.069 393.753 167.962 393.753 167.963 C 393.754 167.964 394.774 175.857 394.774 175.858 M 395.795 183.754 C 395.795 183.754 396.815 191.648 396.815 191.648 M 397.836 199.543 C 397.836 199.543 391.786 200.325 391.785 200.325 M 385.734 201.108 C 385.734 201.108 379.685 201.890 379.684 201.890 M 373.633 202.672 C 373.633 202.671 372.613 194.778 372.613 194.777 C 372.612 194.777 371.592 186.883 371.592 186.883 M 370.571 178.987 C 370.571 178.986 369.551 171.093 369.550 171.092 M 368.530 163.197 C 368.530 163.197 367.509 155.303 367.509 155.303 "/>
<path fill="none" stroke="#494f55" stroke-width="2" stroke-linejoin="round" d="M 259.997 143.102 C 262.691 142.754 268.080 142.057 268.081 142.057 M 276.166 141.012 C 276.166 141.012 284.248 139.967 284.249 139.967 M 292.333 138.922 C 292.334 138.922 300.417 137.877 300.418 137.877 M 308.502 136.831 C 308.503 136.831 316.585 135.786 316.586 135.786 M 324.670 134.741 C 324.671 134.741 332.754 133.696 332.755 133.696 M 340.838 132.651 C 340.839 132.651 348.922 131.606 348.923 131.606 M 357.007 130.561 C 357.008 130.560 365.091 129.515 365.092 129.515 M 373.175 128.470 C 373.176 128.470 381.259 127.425 381.260 127.425 C 381.260 127.425 386.649 126.728 389.344 126.380 "/>
<path fill="none" stroke="#494f55" stroke-width="2" stroke-linejoin="round" d="M 270.398 223.560 C 273.093 223.211 278.482 222.515 278.483 222.515 M 286.567 221.469 C 286.568 221.469 294.650 220.424 294.651 220.424 M 302.735 219.379 C 302.736 219.379 310.819 218.334 310.820 218.334 M 318.904 217.289 C 318.905 217.289 326.987 216.244 326.988 216.244 M 335.072 215.199 C 335.073 215.199 343.156 214.154 343.156 214.153 M 351.240 213.108 C 351.241 213.108 359.324 212.063 359.325 212.063 M 367.409 211.018 C 367.410 211.018 375.493 209.973 375.493 209.973 M 383.577 208.928 C 383.578 208.928 391.661 207.883 391.661 207.883 C 391.662 207.883 397.051 207.186 399.746 206.837 "/>
<path fill="none" stroke="#494f55" stroke-width="2" stroke-linejoin="round" d="M 282.407 247.539 C 282.407 247.539 280.127 229.905 280.127 229.904 C 280.128 229.904 291.966 228.374 291.966 228.374 C 291.966 228.374 294.246 246.009 294.246 246.009 C 294.246 246.009 282.407 247.539 282.407 247.539 "/>
<path fill="none" stroke="#494f55" stroke-width="2" stroke-linejoin="round" d="M 301.544 245.065 C 301.544 245.065 299.264 227.431 299.264 227.430 C 299.264 227.430 311.102 225.900 311.103 225.900 C 311.103 225.900 313.383 243.535 313.383 243.535 C 313.382 243.535 301.544 245.065 301.544 245.065 "/>
<path fill="none" stroke="#494f55" stroke-width="2" stroke-linejoin="round" d="M 319.797 242.706 C 319.797 242.705 317.517 225.071 317.517 225.071 C 317.518 225.071 329.356 223.540 329.356 223.540 C 329.356 223.540 331.636 241.175 331.636 241.175 C 331.636 241.175 319.797 242.706 319.797 242.706 "/>
<path fill="none" stroke="#494f55" stroke-width="2" stroke-linejoin="round" d="M 338.640 240.270 C 338.640 240.269 336.360 222.635 336.360 222.635 C 336.361 222.635 348.199 221.104 348.199 221.104 C 348.199 221.104 350.479 238.739 350.479 238.739 C 350.479 238.739 338.641 240.270 338.640 240.270 "/>
<path fill="none" stroke="#494f55" stroke-width="2" stroke-linejoin="round" d="M 371.025 236.083 C 371.025 236.083 368.745 218.448 368.745 218.448 C 368.745 218.448 380.584 216.917 380.584 216.917 C 380.584 216.917 382.864 234.552 382.864 234.552 C 382.863 234.552 371.025 236.083 371.025 236.083 "/>
<path fill="#a0abb7" fill-rule="evenodd" stroke="none" d="M 371.041 47.139 C 373.317 46.844 375.391 48.443 375.685 50.719 C 375.979 52.995 374.380 55.068 372.104 55.362 C 369.828 55.657 367.755 54.058 367.460 51.782 C 367.166 49.506 368.765 47.433 371.041 47.139 Z"/>
</g>
<g id="Layer_4">
<path fill="#bebeba" fill-rule="evenodd" stroke="none" d="M 559.344 210.422 C 558.720 206.587 561.292 201.710 565.125 201.076 C 565.125 201.076 578.633 199.646 578.633 199.646 C 582.514 199.465 586.050 203.695 586.242 207.575 C 586.242 207.575 586.954 214.302 586.954 214.302 C 587.576 218.138 585.007 223.014 581.173 223.649 C 581.173 223.649 567.666 225.078 567.666 225.078 C 563.784 225.259 560.251 221.029 560.056 217.149 C 560.056 217.149 559.344 210.422 559.344 210.422 Z"/>
<path fill="#bebeba" fill-rule="evenodd" stroke="none" d="M 553.246 241.702 C 553.247 241.700 556.222 229.586 563.267 225.514 C 571.255 220.898 579.321 221.836 584.850 225.129 C 590.800 228.673 595.359 245.848 595.360 245.850 C 595.359 245.851 587.157 249.793 587.156 249.793 C 587.156 249.792 582.152 237.078 582.152 237.077 C 582.152 237.079 586.815 248.919 586.777 255.962 C 586.745 261.797 579.796 267.540 582.345 270.415 C 583.905 272.175 589.903 267.373 591.595 270.030 C 592.935 272.135 588.704 276.773 588.704 276.774 C 588.702 276.774 574.445 276.196 574.444 276.196 C 574.444 276.194 573.480 259.625 573.480 259.623 C 573.480 259.625 571.361 276.965 571.360 276.967 C 571.359 276.967 555.560 277.737 555.559 277.738 C 555.558 277.737 550.544 274.109 551.126 272.149 C 552.112 268.832 560.645 273.849 563.074 270.415 C 566.196 266.001 559.204 261.106 559.220 255.384 C 559.240 248.160 564.423 236.500 564.423 236.499 C 564.422 236.500 558.521 249.519 558.521 249.520 C 558.521 249.519 553.247 241.702 553.246 241.702 Z"/>
<path fill="#696967" fill-rule="evenodd" stroke="none" d="M 563.121 210.953 C 562.668 208.167 564.536 204.624 567.321 204.164 C 567.321 204.164 577.133 203.125 577.133 203.125 C 579.952 202.994 582.520 206.066 582.660 208.885 C 582.660 208.885 583.177 213.771 583.177 213.771 C 583.629 216.557 581.762 220.100 578.978 220.560 C 578.978 220.560 569.166 221.599 569.166 221.599 C 566.347 221.730 563.780 218.658 563.638 215.839 C 563.638 215.839 563.121 210.953 563.121 210.953 Z"/>
<path fill="#bebeba" fill-rule="evenodd" stroke="none" d="M 555.457 240.929 C 558.105 240.929 560.494 243.253 560.494 246.546 C 560.494 249.839 558.105 252.163 555.457 252.163 C 552.809 252.163 550.419 249.839 550.419 246.546 C 550.419 243.253 552.808 240.929 555.457 240.929 Z"/>
<path fill="#bebeba" fill-rule="evenodd" stroke="none" d="M 591.987 243.248 C 594.703 243.248 597.241 245.689 597.242 249.336 C 597.242 252.983 594.703 255.425 591.987 255.425 C 589.270 255.425 586.732 252.983 586.732 249.336 C 586.732 245.689 589.270 243.248 591.987 243.248 Z"/>
<path fill="#a8a8a5" fill-rule="evenodd" stroke="none" d="M 558.501 242.451 C 559.478 242.451 560.639 243.307 560.639 246.002 C 560.639 248.697 559.478 249.554 558.501 249.554 C 557.524 249.554 556.363 248.697 556.363 246.002 C 556.363 243.307 557.524 242.451 558.501 242.451 Z"/>
<path fill="#a8a8a5" fill-rule="evenodd" stroke="none" d="M 588.254 245.857 C 589.097 245.857 590.139 246.668 590.138 249.264 C 590.138 251.859 589.097 252.670 588.254 252.670 C 587.411 252.670 586.370 251.859 586.370 249.264 C 586.369 246.668 587.411 245.857 588.254 245.857 Z"/>
<path fill="#a8a8a5" fill-rule="evenodd" stroke="none" d="M 560.623 227.463 C 560.623 227.464 563.350 229.843 563.350 229.843 C 563.350 229.843 561.533 231.925 561.533 231.925 C 561.533 231.925 558.806 229.546 558.806 229.546 C 558.806 229.545 560.623 227.464 560.623 227.463 Z"/>
<path fill="#a8a8a5" fill-rule="evenodd" stroke="none" d="M 587.678 227.611 C 587.678 227.611 584.662 229.610 584.661 229.610 C 584.661 229.610 586.188 231.914 586.188 231.914 C 586.188 231.914 589.204 229.915 589.205 229.914 C 589.205 229.914 587.679 227.611 587.678 227.611 Z"/>
<path fill="#a8a8a5" fill-rule="evenodd" stroke="none" d="M 575.201 229.725 C 575.202 229.725 580.632 229.750 580.632 229.750 C 580.632 229.750 580.604 232.513 580.604 232.514 C 580.603 232.514 575.173 232.489 575.172 232.489 C 575.172 232.488 575.201 229.725 575.201 229.725 Z"/>
<path fill="#a8a8a5" fill-rule="evenodd" stroke="none" d="M 564.652 264.389 C 565.215 264.249 566.076 264.672 566.532 266.501 C 566.988 268.330 566.428 269.108 565.865 269.249 C 565.302 269.389 564.441 268.966 563.985 267.137 C 563.529 265.308 564.089 264.530 564.652 264.389 Z"/>
<path fill="#a8a8a5" fill-rule="evenodd" stroke="none" d="M 580.903 264.402 C 581.463 264.553 582.009 265.342 581.517 267.162 C 581.025 268.981 580.156 269.388 579.596 269.237 C 579.036 269.085 578.490 268.296 578.982 266.477 C 579.474 264.657 580.343 264.250 580.903 264.402 Z"/>
<path fill="#a8a8a5" fill-rule="evenodd" stroke="none" d="M 616.399 167.269 C 616.400 167.269 619.025 167.269 619.025 167.269 C 619.025 167.280 619.025 281.482 619.025 281.493 C 619.025 281.493 616.400 281.493 616.399 281.493 C 616.399 281.482 616.399 167.280 616.399 167.269 Z"/>
<path fill="#a8a8a5" fill-rule="evenodd" stroke="none" d="M 620.907 167.467 C 620.910 167.467 642.269 170.413 648.334 167.467 C 649.316 166.990 650.631 164.735 651.474 164.328 C 656.169 162.059 676.206 164.328 676.209 164.328 C 676.209 164.331 676.209 194.357 676.209 194.360 C 676.206 194.360 656.802 192.569 652.135 194.360 C 651.124 194.747 649.067 197.076 647.974 197.498 C 642.297 199.691 620.909 197.498 620.907 197.498 C 620.907 197.495 620.907 167.470 620.907 167.467 Z"/>
</g>
</g>
</svg>
