<?xml version="1.0" encoding="utf-8"?>
<!-- Generator: Moho 12.3 build 22017 -->
<!DOCTYPE svg PUBLIC "-//W3C//DTD SVG 1.1//EN" "http://www.w3.org/Graphics/SVG/1.1/DTD/svg11.dtd">
<svg version="1.1" id="Frame_0" xmlns="http://www.w3.org/2000/svg" xmlns:xlink="http://www.w3.org/1999/xlink" width="1280px" height="720px">
<g id="Layer_1">
<path fill="#f0f0ea" fill-rule="evenodd" stroke="none" d="M -806.206 1281.052 C -149.032 1296.653 1261.872 1296.242 2072.622 1281.052 C 1796.068 788.935 1238.671 579.096 633.816 579.118 C 28.897 579.140 -528.547 789.028 -806.206 1281.052 Z"/>
<path fill="#ddddd8" fill-rule="evenodd" stroke="none" d="M -739.979 1259.021 C -112.048 1259.021 1235.384 1259.021 2009.975 1259.021 C 1744.943 790.176 1212.649 592.771 635.580 592.792 C 58.447 592.813 -473.892 790.266 -739.979 1259.021 Z"/>
<path fill="#bebeba" fill-rule="evenodd" stroke="none" d="M 180.725 672.507 C 210.430 672.507 221.169 683.144 221.169 691.208 C 221.169 699.271 210.430 709.907 180.725 709.907 C 151.019 709.907 140.280 699.271 140.280 691.208 C 140.280 683.144 151.019 672.507 180.725 672.507 Z"/>
<path fill="#bebeba" fill-rule="evenodd" stroke="none" d="M 552.986 615.103 C 572.620 615.103 581.253 619.996 581.253 623.365 C 581.253 626.735 572.620 631.628 552.986 631.628 C 533.352 631.628 524.718 626.735 524.718 623.365 C 524.718 619.996 533.352 615.103 552.986 615.103 Z"/>
<path fill="#bebeba" fill-rule="evenodd" stroke="none" d="M 596.909 701.210 C 612.319 701.210 619.523 704.080 619.523 705.993 C 619.523 707.907 612.319 710.777 596.909 710.777 C 581.500 710.777 574.295 707.907 574.295 705.993 C 574.295 704.080 581.500 701.210 596.909 701.210 Z"/>
<path fill="#bebeba" fill-rule="evenodd" stroke="none" d="M 446.439 661.200 C 465.515 661.200 472.532 667.903 472.532 672.942 C 472.532 677.982 465.515 684.684 446.439 684.684 C 427.364 684.684 420.346 677.982 420.346 672.942 C 420.346 667.903 427.364 661.200 446.439 661.200 Z"/>
<path fill="#bebeba" fill-rule="evenodd" stroke="none" d="M 981.347 643.805 C 1014.771 643.805 1025.705 658.419 1025.705 670.768 C 1025.705 683.117 1014.771 697.731 981.347 697.731 C 947.923 697.731 936.989 683.117 936.989 670.768 C 936.989 658.419 947.923 643.805 981.347 643.805 Z"/>
<path fill="#bebeba" fill-rule="evenodd" stroke="none" d="M 834.356 620.321 C 846.000 620.321 850.882 623.636 850.882 625.975 C 850.882 628.313 846.000 631.628 834.356 631.628 C 822.712 631.628 817.831 628.313 817.831 625.975 C 817.831 623.636 822.712 620.321 834.356 620.321 Z"/>
<path fill="#bebeba" fill-rule="evenodd" stroke="none" d="M 1162.694 695.121 C 1184.988 695.121 1194.441 706.386 1194.441 716.431 C 1194.441 726.475 1184.988 737.740 1162.694 737.740 C 1140.400 737.740 1130.948 726.475 1130.948 716.431 C 1130.948 706.386 1140.400 695.121 1162.694 695.121 Z"/>
<path fill="#bebeba" fill-rule="evenodd" stroke="none" d="M 739.986 619.451 C 751.562 619.451 756.077 623.220 756.077 625.975 C 756.077 628.730 751.562 632.498 739.986 632.498 C 728.411 632.498 723.896 628.730 723.896 625.975 C 723.896 623.220 728.411 619.451 739.986 619.451 Z"/>
<path fill="#bebeba" fill-rule="evenodd" stroke="none" d="M 853.491 693.382 C 913.785 693.382 940.468 708.082 940.468 718.170 C 940.468 728.258 913.785 742.959 853.491 742.959 C 793.197 742.959 766.514 728.258 766.514 718.170 C 766.514 708.082 793.197 693.382 853.491 693.382 Z"/>
</g>
<g id="Layer_3">
<path fill="#a0abb7" fill-rule="evenodd" stroke="none" d="M 261.869 320.590 C 261.873 320.591 278.171 318.659 306.207 329.888 C 334.964 341.407 345.667 354.416 345.671 354.418 C 345.665 354.419 326.005 382.468 291.279 368.451 C 256.551 354.433 261.872 320.595 261.869 320.590 Z"/>
<path fill="#a0abb7" fill-rule="evenodd" stroke="none" d="M 190.351 535.115 C 190.345 535.120 127.261 582.476 127.255 582.480 C 127.254 582.489 114.745 665.411 114.743 665.419 C 114.742 665.419 99.986 667.327 99.985 667.327 C 99.984 667.328 96.886 680.795 96.886 680.797 C 96.890 680.796 145.442 674.519 145.447 674.518 C 145.446 674.517 136.644 662.589 136.643 662.588 C 136.643 662.588 127.598 663.757 127.598 663.757 C 127.599 663.749 137.162 587.984 137.163 587.976 C 137.168 587.972 194.863 547.605 194.869 547.601 C 194.869 547.600 190.351 535.117 190.351 535.115 Z"/>
<path fill="#a0abb7" fill-rule="evenodd" stroke="none" d="M 326.513 517.512 C 326.520 517.515 399.573 547.271 399.580 547.274 C 399.583 547.281 432.769 624.296 432.772 624.303 C 432.774 624.303 447.529 622.396 447.531 622.395 C 447.532 622.397 453.953 634.633 453.954 634.634 C 453.949 634.635 405.397 640.912 405.393 640.912 C 405.393 640.911 410.872 627.136 410.872 627.135 C 410.873 627.135 419.917 625.965 419.918 625.965 C 419.915 625.958 391.398 555.116 391.396 555.109 C 391.389 555.106 325.325 530.739 325.318 530.736 C 325.318 530.735 326.512 517.513 326.513 517.512 Z"/>
<path fill="#a0abb7" fill-rule="evenodd" stroke="none" d="M 202.458 553.881 C 202.472 553.879 338.130 536.341 338.144 536.339 C 338.144 536.342 342.206 567.758 342.206 567.761 C 342.192 567.763 206.534 585.301 206.520 585.303 C 206.520 585.300 202.458 553.884 202.458 553.881 Z"/>
<path fill="#bbc6d1" fill-rule="evenodd" stroke="none" d="M 170.321 432.604 C 170.325 432.599 206.537 375.385 206.541 375.379 C 206.545 375.378 249.437 369.833 249.441 369.833 C 249.445 369.832 292.338 364.287 292.342 364.286 C 292.347 364.291 341.918 410.415 341.923 410.419 C 341.925 410.433 359.063 542.996 359.065 543.009 C 359.047 543.012 187.480 565.192 187.463 565.194 C 187.461 565.181 170.323 432.618 170.321 432.604 Z"/>
<path fill="#e7eaec" fill-rule="evenodd" stroke="none" d="M 183.959 441.559 C 183.969 441.558 276.518 429.593 276.527 429.592 C 276.528 429.600 286.741 508.603 286.742 508.611 C 286.733 508.612 194.184 520.577 194.175 520.578 C 194.174 520.570 183.960 441.567 183.959 441.559 Z"/>
<path fill="#494f55" fill-rule="evenodd" stroke="none" d="M 192.003 446.806 C 192.011 446.805 270.074 436.713 270.082 436.712 C 270.083 436.718 278.698 503.357 278.699 503.364 C 278.691 503.365 200.628 513.457 200.620 513.458 C 200.619 513.451 192.004 446.813 192.003 446.806 Z"/>
<path fill="#a0abb7" fill-rule="evenodd" stroke="none" d="M 293.714 527.383 C 293.717 527.391 319.698 610.838 319.701 610.846 C 319.701 610.854 326.384 685.003 326.385 685.010 C 326.383 685.010 311.628 686.918 311.626 686.918 C 311.626 686.919 308.527 700.386 308.527 700.388 C 308.532 700.387 357.083 694.110 357.088 694.110 C 357.087 694.108 348.286 682.180 348.285 682.179 C 348.284 682.179 339.240 683.348 339.239 683.348 C 339.238 683.341 332.081 609.253 332.080 609.246 C 332.077 609.237 303.892 524.496 303.889 524.487 C 303.888 524.488 293.715 527.383 293.714 527.383 Z"/>
<path fill="none" stroke="#494f55" stroke-width="3" stroke-linejoin="round" d="M 304.867 436.958 C 304.867 436.957 303.617 427.285 303.617 427.284 C 303.617 427.284 311.030 426.326 311.031 426.326 M 318.445 425.367 C 318.446 425.367 325.857 424.409 325.858 424.409 C 325.859 424.409 333.272 423.450 333.272 423.450 C 333.272 423.451 334.523 433.123 334.523 433.124 M 337.024 452.471 C 337.024 452.472 338.275 462.144 338.275 462.145 C 338.275 462.146 339.525 471.817 339.525 471.818 M 340.776 481.493 C 340.776 481.494 342.027 491.165 342.027 491.166 M 343.277 500.840 C 343.277 500.840 335.864 501.798 335.863 501.798 M 328.449 502.757 C 328.448 502.757 321.036 503.715 321.036 503.715 M 313.622 504.674 C 313.621 504.673 312.371 495.001 312.371 495.000 C 312.371 494.999 311.120 485.328 311.120 485.327 M 309.870 475.652 C 309.870 475.651 308.619 465.980 308.619 465.979 M 307.368 456.305 C 307.368 456.304 306.118 446.633 306.118 446.632 "/>
<path fill="none" stroke="#494f55" stroke-width="3" stroke-linejoin="round" d="M 174.383 431.683 C 177.685 431.256 184.288 430.402 184.289 430.402 M 194.195 429.122 C 194.196 429.121 204.099 427.841 204.100 427.841 M 214.005 426.560 C 214.006 426.560 223.910 425.280 223.911 425.280 M 233.817 423.999 C 233.818 423.999 243.721 422.719 243.722 422.719 M 253.628 421.438 C 253.629 421.438 263.533 420.157 263.533 420.157 M 273.438 418.877 C 273.439 418.877 283.343 417.596 283.344 417.596 M 293.250 416.316 C 293.251 416.315 303.155 415.035 303.156 415.035 M 313.060 413.754 C 313.061 413.754 322.965 412.474 322.966 412.474 C 322.967 412.474 329.570 411.620 332.872 411.193 "/>
<path fill="none" stroke="#494f55" stroke-width="3" stroke-linejoin="round" d="M 187.128 530.267 C 190.430 529.840 197.033 528.987 197.034 528.987 M 206.940 527.706 C 206.941 527.706 216.844 526.425 216.845 526.425 M 226.751 525.145 C 226.752 525.145 236.655 523.864 236.656 523.864 M 246.562 522.583 C 246.563 522.583 256.466 521.303 256.467 521.303 M 266.373 520.022 C 266.374 520.022 276.278 518.742 276.279 518.742 M 286.183 517.461 C 286.184 517.461 296.088 516.181 296.089 516.180 M 305.995 514.900 C 305.996 514.900 315.900 513.619 315.901 513.619 M 325.806 512.339 C 325.807 512.339 335.711 511.058 335.711 511.058 C 335.712 511.058 342.315 510.204 345.617 509.777 "/>
<path fill="none" stroke="#494f55" stroke-width="3" stroke-linejoin="round" d="M 201.843 559.649 C 201.843 559.649 199.049 538.042 199.049 538.041 C 199.050 538.041 213.555 536.166 213.555 536.166 C 213.555 536.166 216.349 557.774 216.349 557.774 C 216.348 557.774 201.843 559.649 201.843 559.649 "/>
<path fill="none" stroke="#494f55" stroke-width="3" stroke-linejoin="round" d="M 225.291 556.618 C 225.291 556.618 222.497 535.010 222.497 535.010 C 222.498 535.010 237.003 533.135 237.003 533.135 C 237.003 533.135 239.797 554.742 239.797 554.743 C 239.796 554.743 225.291 556.618 225.291 556.618 "/>
<path fill="none" stroke="#494f55" stroke-width="3" stroke-linejoin="round" d="M 247.657 553.727 C 247.657 553.726 244.863 532.119 244.863 532.118 C 244.863 532.118 259.369 530.243 259.369 530.243 C 259.369 530.243 262.163 551.851 262.163 551.851 C 262.162 551.851 247.657 553.726 247.657 553.727 "/>
<path fill="none" stroke="#494f55" stroke-width="3" stroke-linejoin="round" d="M 270.745 550.742 C 270.745 550.741 267.951 529.134 267.951 529.134 C 267.952 529.133 282.457 527.258 282.458 527.258 C 282.458 527.258 285.251 548.866 285.251 548.866 C 285.251 548.866 270.745 550.742 270.745 550.742 "/>
<path fill="none" stroke="#494f55" stroke-width="3" stroke-linejoin="round" d="M 310.426 545.612 C 310.426 545.611 307.632 524.004 307.632 524.003 C 307.633 524.003 322.138 522.128 322.138 522.128 C 322.138 522.128 324.932 543.736 324.932 543.736 C 324.932 543.736 310.426 545.612 310.426 545.612 "/>
<path fill="#a0abb7" fill-rule="evenodd" stroke="none" d="M 310.445 314.099 C 313.234 313.738 315.775 315.697 316.136 318.486 C 316.496 321.275 314.537 323.815 311.748 324.175 C 308.960 324.536 306.419 322.578 306.058 319.789 C 305.697 317.000 307.656 314.459 310.445 314.099 Z"/>
</g>
<g id="Layer_4">
<path fill="#bebeba" fill-rule="evenodd" stroke="none" d="M 541.172 514.169 C 540.408 509.470 543.559 503.495 548.256 502.718 C 548.256 502.718 564.808 500.966 564.808 500.966 C 569.563 500.744 573.895 505.926 574.131 510.681 C 574.131 510.681 575.003 518.924 575.003 518.924 C 575.766 523.624 572.617 529.599 567.920 530.376 C 567.920 530.376 551.369 532.128 551.369 532.128 C 546.613 532.350 542.283 527.167 542.045 522.412 C 542.045 522.412 541.172 514.169 541.172 514.169 Z"/>
<path fill="#bebeba" fill-rule="evenodd" stroke="none" d="M 533.701 552.496 C 533.702 552.494 537.347 537.651 545.979 532.662 C 555.766 527.006 565.651 528.155 572.425 532.190 C 579.716 536.532 585.301 557.577 585.302 557.580 C 585.301 557.580 575.251 562.411 575.250 562.411 C 575.250 562.410 569.120 546.831 569.119 546.830 C 569.120 546.832 574.833 561.340 574.786 569.969 C 574.747 577.119 566.232 584.156 569.355 587.678 C 571.267 589.836 578.617 583.952 580.689 587.206 C 582.332 589.786 577.147 595.470 577.147 595.471 C 577.145 595.471 559.676 594.762 559.674 594.762 C 559.674 594.760 558.494 574.458 558.494 574.456 C 558.493 574.458 555.896 595.705 555.896 595.707 C 555.894 595.707 536.536 596.651 536.534 596.651 C 536.534 596.650 530.390 592.205 531.103 589.804 C 532.311 585.740 542.767 591.886 545.743 587.678 C 549.568 582.270 541.001 576.273 541.021 569.261 C 541.045 560.409 547.395 546.123 547.396 546.121 C 547.395 546.123 540.163 562.075 540.164 562.076 C 540.165 562.075 533.701 552.497 533.701 552.496 Z"/>
<path fill="#696967" fill-rule="evenodd" stroke="none" d="M 545.801 514.820 C 545.245 511.406 547.535 507.066 550.946 506.501 C 550.946 506.501 562.969 505.229 562.969 505.229 C 566.423 505.068 569.570 508.832 569.741 512.286 C 569.741 512.286 570.375 518.273 570.375 518.273 C 570.928 521.687 568.641 526.028 565.229 526.592 C 565.229 526.592 553.207 527.864 553.207 527.864 C 549.753 528.026 546.608 524.261 546.434 520.807 C 546.434 520.807 545.801 514.820 545.801 514.820 Z"/>
<path fill="#bebeba" fill-rule="evenodd" stroke="none" d="M 536.409 551.549 C 539.654 551.549 542.582 554.397 542.582 558.432 C 542.581 562.467 539.654 565.315 536.409 565.315 C 533.165 565.315 530.237 562.467 530.237 558.432 C 530.237 554.397 533.165 551.549 536.409 551.549 Z"/>
<path fill="#bebeba" fill-rule="evenodd" stroke="none" d="M 581.169 554.391 C 584.498 554.391 587.608 557.382 587.608 561.851 C 587.608 566.320 584.498 569.311 581.169 569.311 C 577.840 569.311 574.731 566.320 574.731 561.851 C 574.731 557.382 577.840 554.391 581.169 554.391 Z"/>
<path fill="#a8a8a5" fill-rule="evenodd" stroke="none" d="M 540.139 553.414 C 541.336 553.414 542.759 554.464 542.759 557.766 C 542.759 561.068 541.336 562.117 540.139 562.117 C 538.942 562.117 537.519 561.068 537.520 557.766 C 537.520 554.464 538.943 553.414 540.139 553.414 Z"/>
<path fill="#a8a8a5" fill-rule="evenodd" stroke="none" d="M 576.596 557.588 C 577.629 557.588 578.905 558.582 578.905 561.762 C 578.905 564.942 577.629 565.936 576.596 565.936 C 575.563 565.936 574.287 564.942 574.287 561.762 C 574.287 558.582 575.563 557.588 576.596 557.588 Z"/>
<path fill="#a8a8a5" fill-rule="evenodd" stroke="none" d="M 542.740 535.050 C 542.740 535.051 546.081 537.966 546.081 537.966 C 546.081 537.966 543.855 540.517 543.855 540.517 C 543.854 540.517 540.514 537.602 540.513 537.602 C 540.514 537.601 542.739 535.051 542.740 535.050 Z"/>
<path fill="#a8a8a5" fill-rule="evenodd" stroke="none" d="M 575.891 535.231 C 575.890 535.231 572.194 537.680 572.194 537.681 C 572.194 537.681 574.064 540.503 574.064 540.503 C 574.065 540.503 577.760 538.054 577.761 538.053 C 577.761 538.053 575.891 535.231 575.891 535.231 Z"/>
<path fill="#a8a8a5" fill-rule="evenodd" stroke="none" d="M 560.602 537.821 C 560.603 537.821 567.256 537.852 567.257 537.852 C 567.257 537.853 567.222 541.238 567.222 541.238 C 567.221 541.238 560.567 541.208 560.567 541.208 C 560.567 541.208 560.602 537.822 560.602 537.821 Z"/>
<path fill="#a8a8a5" fill-rule="evenodd" stroke="none" d="M 547.676 580.296 C 548.366 580.123 549.421 580.642 549.980 582.883 C 550.539 585.124 549.852 586.078 549.162 586.250 C 548.473 586.422 547.418 585.903 546.859 583.662 C 546.300 581.421 546.987 580.468 547.676 580.296 Z"/>
<path fill="#a8a8a5" fill-rule="evenodd" stroke="none" d="M 567.589 580.311 C 568.275 580.496 568.943 581.463 568.341 583.693 C 567.738 585.922 566.673 586.420 565.987 586.235 C 565.301 586.049 564.632 585.083 565.235 582.853 C 565.838 580.623 566.903 580.125 567.589 580.311 Z"/>
<path fill="#a8a8a5" fill-rule="evenodd" stroke="none" d="M 611.082 461.294 C 611.083 461.294 614.299 461.294 614.300 461.294 C 614.300 461.308 614.300 601.239 614.300 601.253 C 614.299 601.253 611.083 601.253 611.082 601.253 C 611.082 601.239 611.082 461.308 611.082 461.294 Z"/>
<path fill="#a8a8a5" fill-rule="evenodd" stroke="none" d="M 616.605 461.537 C 616.608 461.537 642.780 465.147 650.211 461.537 C 651.414 460.952 653.026 458.190 654.059 457.691 C 659.812 454.911 684.363 457.691 684.366 457.691 C 684.366 457.694 684.366 494.485 684.366 494.488 C 684.364 494.488 660.588 492.295 654.869 494.488 C 653.631 494.963 651.110 497.817 649.771 498.334 C 642.814 501.020 616.608 498.334 616.605 498.334 C 616.605 498.331 616.605 461.540 616.605 461.537 Z"/>
</g>
</svg>
