<?xml version="1.0" encoding="utf-8"?>
<!-- Generator: Moho 13.0.3 build 643 -->
<!DOCTYPE svg PUBLIC "-//W3C//DTD SVG 1.1//EN" "http://www.w3.org/Graphics/SVG/1.1/DTD/svg11.dtd">
<svg version="1.1" id="Frame_4" xmlns="http://www.w3.org/2000/svg" xmlns:xlink="http://www.w3.org/1999/xlink" width="720px" height="720px">
<g id="Layer_10">
<path fill="#3a3a3a" fill-rule="evenodd" stroke="none" d="M 612.333 644.791 C 612.330 644.793 584.508 664.452 584.505 664.454 C 584.504 664.453 576.403 652.988 576.402 652.987 C 576.405 652.985 604.228 633.326 604.230 633.324 C 604.231 633.325 612.332 644.790 612.333 644.791 Z"/>
<path fill="#3a3a3a" fill-rule="evenodd" stroke="none" d="M 584.380 669.503 C 584.379 669.504 576.254 675.245 576.253 675.246 C 576.252 675.244 562.334 655.546 562.333 655.544 C 562.333 655.544 570.459 649.802 570.459 649.802 C 570.461 649.804 584.379 669.501 584.380 669.503 Z"/>
<path fill="#3a3a3a" fill-rule="evenodd" stroke="none" d="M 570.843 646.854 C 569.702 650.569 563.575 654.899 559.692 654.734 C 557.418 654.637 553.210 650.051 553.209 650.051 C 553.211 650.049 568.593 639.181 568.594 639.180 C 568.594 639.181 571.512 644.678 570.843 646.854 Z"/>
<path fill="#3a3a3a" fill-rule="evenodd" stroke="none" d="M 571.815 673.420 C 571.813 673.422 543.990 693.081 543.987 693.083 C 543.987 693.082 535.886 681.617 535.885 681.616 C 535.888 681.614 563.710 661.955 563.713 661.953 C 563.714 661.954 571.815 673.419 571.815 673.420 Z"/>
<path fill="#3a3a3a" fill-rule="evenodd" stroke="none" d="M 585.234 674.481 C 585.233 674.482 580.661 677.712 580.660 677.713 C 580.660 677.712 578.294 674.363 578.293 674.363 C 578.294 674.362 582.866 671.132 582.867 671.131 C 582.867 671.132 585.234 674.481 585.234 674.481 Z"/>
<path fill="#3a3a3a" fill-rule="evenodd" stroke="none" d="M 560.228 643.803 C 559.235 644.505 558.311 644.297 557.925 643.750 C 557.539 643.204 557.651 642.264 558.644 641.562 C 559.637 640.860 560.562 641.068 560.948 641.615 C 561.333 642.161 561.221 643.102 560.228 643.803 Z"/>
</g>
</svg>
