<?xml version="1.0" encoding="utf-8"?>
<!-- Generator: Moho 13.0.3 build 643 -->
<!DOCTYPE svg PUBLIC "-//W3C//DTD SVG 1.1//EN" "http://www.w3.org/Graphics/SVG/1.1/DTD/svg11.dtd">
<svg version="1.1" id="Frame_8" xmlns="http://www.w3.org/2000/svg" xmlns:xlink="http://www.w3.org/1999/xlink" width="1000px" height="1000px">
<g id="Layer_21">
<path fill="#543b79" fill-rule="evenodd" stroke="none" d="M 592.501 436.612 C 592.432 436.608 592.484 436.607 592.659 436.612 C 577.721 449.162 558.594 455.717 536.153 455.721 C 484.705 455.725 433.373 455.717 382.158 455.721 C 382.041 406.143 382.041 356.571 382.158 307.001 C 433.373 306.998 484.705 306.993 536.153 307.001 C 561.865 307.004 581.416 312.707 594.964 323.678 C 608.630 334.689 615.369 353.936 615.369 381.038 C 615.369 405.169 607.900 423.680 592.659 436.612 M 615.559 545.297 C 615.505 545.292 615.569 545.293 615.748 545.297 C 615.881 545.292 615.660 545.292 615.559 545.297 C 599.967 530.860 577.791 523.819 549.150 523.820 C 493.574 523.816 438.116 523.814 382.773 523.820 C 382.659 579.862 382.659 635.910 382.773 691.965 C 438.274 691.959 493.890 691.960 549.624 691.965 C 578.111 691.964 600.439 684.571 616.222 669.634 C 632.002 654.815 640.083 633.684 640.085 606.510 C 639.815 579.947 632.006 559.389 616.222 545.297 M 722.617 678.035 C 722.495 678.054 722.494 678.082 722.617 678.115 C 722.176 677.682 721.855 677.334 721.654 676.994 C 729.209 658.593 733.214 638.879 733.215 618.165 C 733.218 581.174 724.628 550.533 707.883 526.283 C 691.134 502.027 665.685 486.435 632.804 479.505 C 632.685 478.911 632.686 478.321 632.804 477.737 C 657.444 467.342 676.539 452.366 689.784 433.233 C 703.106 413.985 709.729 390.695 709.730 363.555 C 709.731 318.669 695.179 285.408 665.922 263.082 C 636.894 240.869 598.086 229.978 549.656 229.980 C 462.258 229.981 374.978 229.978 287.812 229.980 C 287.696 409.624 287.696 589.269 287.812 768.923 C 370.228 768.916 452.761 768.920 535.411 768.923 C 570.097 768.921 600.047 764.987 625.224 757.173 C 650.436 749.475 670.916 738.705 687.084 725.619 C 702.715 713.032 714.919 696.670 722.617 678.115 M 960.804 183.233 C 960.801 98.540 891.502 29.252 806.808 29.254 C 601.378 29.260 396.072 29.260 190.876 29.254 C 105.914 29.483 37.115 98.271 36.881 183.233 C 36.763 388.546 36.763 593.860 36.881 799.182 C 36.884 883.875 106.183 953.163 190.876 953.161 C 396.072 953.146 601.378 953.146 806.808 953.161 C 891.502 953.163 960.801 883.875 960.804 799.182 C 960.687 593.860 960.687 388.546 960.804 183.233 Z"/>
</g>
</svg>
