<?xml version="1.0" encoding="utf-8"?>
<!-- Generator: Moho 13.0.3 build 643 -->
<!DOCTYPE svg PUBLIC "-//W3C//DTD SVG 1.1//EN" "http://www.w3.org/Graphics/SVG/1.1/DTD/svg11.dtd">
<svg version="1.1" id="Frame_3" xmlns="http://www.w3.org/2000/svg" xmlns:xlink="http://www.w3.org/1999/xlink" width="1000px" height="1000px">
<g id="Layer_21">
<path fill="#00427e" fill-rule="evenodd" stroke="none" d="M 892.439 480.772 C 892.397 491.086 892.397 501.405 892.439 511.728 C 882.079 511.724 871.760 511.724 861.482 511.728 C 861.441 522.042 861.441 532.362 861.482 542.685 C 851.122 542.680 840.803 542.680 830.524 542.685 C 830.484 532.362 830.484 522.043 830.524 511.728 C 820.181 511.724 809.878 511.723 799.615 511.728 C 799.574 501.405 799.574 491.086 799.615 480.772 C 809.878 480.767 820.181 480.767 830.524 480.772 C 830.484 470.448 830.484 460.129 830.524 449.815 C 840.803 449.810 851.122 449.810 861.482 449.815 C 861.441 460.129 861.441 470.448 861.482 480.772 C 871.760 480.767 882.079 480.767 892.439 480.772 M 776.374 480.772 C 776.335 491.086 776.335 501.405 776.374 511.728 C 766.020 511.723 755.707 511.724 745.432 511.728 C 745.393 522.042 745.393 532.362 745.432 542.685 C 735.074 542.680 724.755 542.680 714.477 542.685 C 714.437 532.362 714.437 522.042 714.477 511.728 C 704.118 511.724 693.799 511.724 683.519 511.728 C 683.480 501.405 683.480 491.086 683.519 480.772 C 693.799 480.767 704.118 480.767 714.477 480.772 C 714.437 470.448 714.437 460.129 714.477 449.815 C 724.755 449.810 735.074 449.810 745.432 449.815 C 745.393 460.129 745.393 470.448 745.432 480.772 C 755.707 480.767 766.020 480.767 776.374 480.772 M 637.035 737.380 C 594.709 761.797 546.722 774.693 497.857 774.783 C 344.270 774.781 219.325 649.837 219.325 496.250 C 219.325 342.664 344.270 217.719 497.857 217.717 C 546.718 217.806 594.698 230.701 637.019 255.120 C 679.338 279.537 714.509 314.626 739.036 356.879 C 698.823 380.137 658.656 403.407 618.519 426.669 C 606.262 405.510 588.672 387.934 567.503 375.701 C 546.327 363.467 522.313 357.006 497.857 356.959 C 421.059 356.955 358.599 419.452 358.599 496.250 C 358.599 573.048 421.059 635.545 497.857 635.540 C 522.305 635.488 546.310 629.025 567.487 616.799 C 588.655 604.579 618.520 565.887 618.519 565.879 C 618.524 565.894 739.069 635.627 739.083 635.621 C 739.067 635.623 679.360 712.965 637.035 737.380 M 915.584 296.829 C 915.665 285.308 911.601 272.528 905.056 261.163 C 898.513 249.802 889.452 239.900 879.500 234.144 C 764.302 167.699 649.187 101.184 534.086 34.708 C 514.184 23.228 481.627 23.228 461.725 34.708 C 346.529 101.183 231.374 167.668 116.246 234.144 C 96.343 245.623 80.083 273.831 80.082 296.829 C 80.048 429.772 80.076 562.718 80.082 695.670 C 80.080 707.192 90.690 731.333 90.691 731.337 C 90.694 731.340 106.293 752.605 116.246 758.323 C 231.359 824.780 346.475 891.295 461.645 957.792 C 481.551 969.274 514.116 969.274 534.022 957.792 C 649.116 891.295 764.231 824.778 879.419 758.323 C 889.372 752.605 898.432 742.700 904.976 731.337 C 911.520 719.972 915.586 707.192 915.584 695.670 C 915.516 562.718 915.512 429.773 915.584 296.829 Z"/>
<path fill="none" stroke="#6296cc" stroke-width="1" stroke-linecap="butt" stroke-linejoin="round" d="M 905.056 261.163 C 898.513 249.802 889.452 239.900 879.500 234.144 "/>
<path fill="none" stroke="#6296cc" stroke-width="1" stroke-linecap="butt" stroke-linejoin="round" d="M 879.500 234.144 C 764.302 167.699 649.187 101.184 534.086 34.708 "/>
<path fill="none" stroke="#6296cc" stroke-width="1" stroke-linecap="butt" stroke-linejoin="round" d="M 534.086 34.708 C 514.184 23.228 481.627 23.228 461.725 34.708 "/>
<path fill="none" stroke="#6296cc" stroke-width="1" stroke-linecap="butt" stroke-linejoin="round" d="M 461.725 34.708 C 346.529 101.183 231.374 167.668 116.246 234.144 "/>
<path fill="none" stroke="#6296cc" stroke-width="1" stroke-linecap="butt" stroke-linejoin="round" d="M 116.246 234.144 C 96.343 245.623 80.083 273.831 80.082 296.829 "/>
<path fill="none" stroke="#6296cc" stroke-width="1" stroke-linecap="butt" stroke-linejoin="round" d="M 80.082 296.829 C 80.048 429.772 80.076 562.718 80.082 695.670 "/>
<path fill="none" stroke="#6296cc" stroke-width="1" stroke-linecap="butt" stroke-linejoin="round" d="M 80.082 695.670 C 80.080 707.192 90.690 731.333 90.691 731.337 "/>
<path fill="#6296cc" fill-rule="evenodd" stroke="none" d="M 506.006 491.572 C 639.030 414.758 772.040 337.966 905.056 261.163 C 898.513 249.802 889.452 239.900 879.500 234.144 C 764.302 167.699 649.187 101.184 534.086 34.708 C 514.184 23.228 481.627 23.228 461.725 34.708 C 346.529 101.183 231.374 167.668 116.246 234.144 C 96.343 245.623 80.083 273.831 80.082 296.829 C 80.048 429.772 80.076 562.718 80.082 695.670 C 80.080 707.192 90.690 731.333 90.691 731.337 C 158.665 692.088 294.591 613.612 294.612 613.601 C 294.633 613.588 435.545 532.242 506.006 491.572 Z"/>
<path fill="none" stroke="#f8f8f8" stroke-width="1" stroke-linecap="butt" stroke-linejoin="round" d="M 497.857 774.783 C 344.270 774.781 219.325 649.837 219.325 496.250 "/>
<path fill="none" stroke="#f8f8f8" stroke-width="1" stroke-linecap="butt" stroke-linejoin="round" d="M 219.325 496.250 C 219.325 342.664 344.270 217.719 497.857 217.717 "/>
<path fill="none" stroke="#f8f8f8" stroke-width="1" stroke-linecap="butt" stroke-linejoin="round" d="M 497.857 217.717 C 546.718 217.806 594.698 230.701 637.019 255.120 "/>
<path fill="none" stroke="#f8f8f8" stroke-width="1" stroke-linecap="butt" stroke-linejoin="round" d="M 637.019 255.120 C 679.338 279.537 714.509 314.626 739.036 356.879 "/>
<path fill="none" stroke="#f8f8f8" stroke-width="1" stroke-linecap="butt" stroke-linejoin="round" d="M 739.036 356.879 C 698.823 380.137 658.656 403.407 618.519 426.669 "/>
<path fill="none" stroke="#f8f8f8" stroke-width="1" stroke-linecap="butt" stroke-linejoin="round" d="M 618.519 426.669 C 606.262 405.510 588.672 387.934 567.503 375.701 "/>
<path fill="none" stroke="#f8f8f8" stroke-width="1" stroke-linecap="butt" stroke-linejoin="round" d="M 567.503 375.701 C 546.327 363.467 522.313 357.006 497.857 356.959 "/>
<path fill="none" stroke="#f8f8f8" stroke-width="1" stroke-linecap="butt" stroke-linejoin="round" d="M 497.857 356.959 C 421.059 356.955 358.599 419.452 358.599 496.250 "/>
<path fill="none" stroke="#f8f8f8" stroke-width="1" stroke-linecap="butt" stroke-linejoin="round" d="M 358.599 496.250 C 358.599 573.048 421.059 635.545 497.857 635.540 "/>
<path fill="none" stroke="#f8f8f8" stroke-width="1" stroke-linecap="butt" stroke-linejoin="round" d="M 497.857 635.540 C 522.305 635.488 546.310 629.025 567.487 616.799 "/>
<path fill="none" stroke="#f8f8f8" stroke-width="1" stroke-linecap="butt" stroke-linejoin="round" d="M 567.487 616.799 C 588.655 604.579 618.520 565.887 618.519 565.879 "/>
<path fill="none" stroke="#f8f8f8" stroke-width="1" stroke-linecap="butt" stroke-linejoin="round" d="M 618.519 565.879 C 618.524 565.894 739.069 635.627 739.083 635.621 "/>
<path fill="none" stroke="#f8f8f8" stroke-width="1" stroke-linecap="butt" stroke-linejoin="round" d="M 739.083 635.621 C 739.067 635.623 679.360 712.965 637.035 737.380 "/>
<path fill="none" stroke="#f8f8f8" stroke-width="1" stroke-linecap="butt" stroke-linejoin="round" d="M 637.035 737.380 C 594.709 761.797 546.722 774.693 497.857 774.783 "/>
<path fill="#f8f8f8" fill-rule="evenodd" stroke="none" d="M 497.857 774.783 C 344.270 774.781 219.325 649.837 219.325 496.250 C 219.325 342.664 344.270 217.719 497.857 217.717 C 546.718 217.806 594.698 230.701 637.019 255.120 C 679.338 279.537 714.509 314.626 739.036 356.879 C 698.823 380.137 658.656 403.407 618.519 426.669 C 606.262 405.510 588.672 387.934 567.503 375.701 C 546.327 363.467 522.313 357.006 497.857 356.959 C 421.059 356.955 358.599 419.452 358.599 496.250 C 358.599 573.048 421.059 635.545 497.857 635.540 C 522.305 635.488 546.310 629.025 567.487 616.799 C 588.655 604.579 618.520 565.887 618.519 565.879 C 618.524 565.894 739.069 635.627 739.083 635.621 C 739.067 635.623 679.360 712.965 637.035 737.380 C 594.709 761.797 546.722 774.693 497.857 774.783 Z"/>
<path fill="none" stroke="#005798" stroke-width="1" stroke-linecap="butt" stroke-linejoin="round" d="M 506.006 491.572 C 639.030 414.758 772.040 337.966 905.056 261.163 "/>
<path fill="none" stroke="#005798" stroke-width="1" stroke-linecap="butt" stroke-linejoin="round" d="M 905.056 261.163 C 911.601 272.528 915.665 285.308 915.584 296.829 "/>
<path fill="none" stroke="#005798" stroke-width="1" stroke-linecap="butt" stroke-linejoin="round" d="M 915.584 296.829 C 915.512 429.773 915.516 562.718 915.584 695.670 "/>
<path fill="none" stroke="#005798" stroke-width="1" stroke-linecap="butt" stroke-linejoin="round" d="M 915.584 695.670 C 915.586 707.192 911.520 719.972 904.976 731.337 "/>
<path fill="none" stroke="#005798" stroke-width="1" stroke-linecap="butt" stroke-linejoin="round" d="M 739.083 635.621 C 739.069 635.627 618.524 565.894 618.519 565.879 "/>
<path fill="#005798" fill-rule="evenodd" stroke="none" d="M 618.519 565.879 C 581.684 541.552 544.850 517.227 506.006 491.572 C 639.030 414.758 772.040 337.966 905.056 261.163 C 911.601 272.528 915.665 285.308 915.584 296.829 C 915.512 429.773 915.516 562.718 915.584 695.670 C 915.586 707.192 911.520 719.972 904.976 731.337 C 849.678 699.432 794.381 667.526 739.083 635.621 C 739.069 635.627 618.524 565.894 618.519 565.879 Z"/>
<path fill="none" stroke="#f8f8f8" stroke-width="1" stroke-linecap="butt" stroke-linejoin="round" d="M 892.439 480.772 C 892.397 491.086 892.397 501.405 892.439 511.728 "/>
<path fill="none" stroke="#f8f8f8" stroke-width="1" stroke-linecap="butt" stroke-linejoin="round" d="M 892.439 511.728 C 882.079 511.724 871.760 511.724 861.482 511.728 "/>
<path fill="none" stroke="#f8f8f8" stroke-width="1" stroke-linecap="butt" stroke-linejoin="round" d="M 861.482 511.728 C 861.441 522.042 861.441 532.362 861.482 542.685 "/>
<path fill="none" stroke="#f8f8f8" stroke-width="1" stroke-linecap="butt" stroke-linejoin="round" d="M 861.482 542.685 C 851.122 542.680 840.803 542.680 830.524 542.685 "/>
<path fill="none" stroke="#f8f8f8" stroke-width="1" stroke-linecap="butt" stroke-linejoin="round" d="M 830.524 542.685 C 830.484 532.362 830.484 522.043 830.524 511.728 "/>
<path fill="none" stroke="#f8f8f8" stroke-width="1" stroke-linecap="butt" stroke-linejoin="round" d="M 830.524 511.728 C 820.181 511.724 809.878 511.723 799.615 511.728 "/>
<path fill="none" stroke="#f8f8f8" stroke-width="1" stroke-linecap="butt" stroke-linejoin="round" d="M 799.615 511.728 C 799.574 501.405 799.574 491.086 799.615 480.772 "/>
<path fill="none" stroke="#f8f8f8" stroke-width="1" stroke-linecap="butt" stroke-linejoin="round" d="M 799.615 480.772 C 809.878 480.767 820.181 480.767 830.524 480.772 "/>
<path fill="none" stroke="#f8f8f8" stroke-width="1" stroke-linecap="butt" stroke-linejoin="round" d="M 830.524 480.772 C 830.484 470.448 830.484 460.129 830.524 449.815 "/>
<path fill="none" stroke="#f8f8f8" stroke-width="1" stroke-linecap="butt" stroke-linejoin="round" d="M 830.524 449.815 C 840.803 449.810 851.122 449.810 861.482 449.815 "/>
<path fill="none" stroke="#f8f8f8" stroke-width="1" stroke-linecap="butt" stroke-linejoin="round" d="M 861.482 449.815 C 861.441 460.129 861.441 470.448 861.482 480.772 "/>
<path fill="none" stroke="#f8f8f8" stroke-width="1" stroke-linecap="butt" stroke-linejoin="round" d="M 861.482 480.772 C 871.760 480.767 882.079 480.767 892.439 480.772 "/>
<path fill="none" stroke="#f8f8f8" stroke-width="1" stroke-linecap="butt" stroke-linejoin="round" d="M 776.374 480.772 C 776.335 491.086 776.335 501.405 776.374 511.728 "/>
<path fill="none" stroke="#f8f8f8" stroke-width="1" stroke-linecap="butt" stroke-linejoin="round" d="M 776.374 511.728 C 766.020 511.723 755.707 511.724 745.432 511.728 "/>
<path fill="none" stroke="#f8f8f8" stroke-width="1" stroke-linecap="butt" stroke-linejoin="round" d="M 745.432 511.728 C 745.393 522.042 745.393 532.362 745.432 542.685 "/>
<path fill="none" stroke="#f8f8f8" stroke-width="1" stroke-linecap="butt" stroke-linejoin="round" d="M 745.432 542.685 C 735.074 542.680 724.755 542.680 714.477 542.685 "/>
<path fill="none" stroke="#f8f8f8" stroke-width="1" stroke-linecap="butt" stroke-linejoin="round" d="M 714.477 542.685 C 714.437 532.362 714.437 522.042 714.477 511.728 "/>
<path fill="none" stroke="#f8f8f8" stroke-width="1" stroke-linecap="butt" stroke-linejoin="round" d="M 714.477 511.728 C 704.118 511.724 693.799 511.724 683.519 511.728 "/>
<path fill="none" stroke="#f8f8f8" stroke-width="1" stroke-linecap="butt" stroke-linejoin="round" d="M 683.519 511.728 C 683.480 501.405 683.480 491.086 683.519 480.772 "/>
<path fill="none" stroke="#f8f8f8" stroke-width="1" stroke-linecap="butt" stroke-linejoin="round" d="M 683.519 480.772 C 693.799 480.767 704.118 480.767 714.477 480.772 "/>
<path fill="none" stroke="#f8f8f8" stroke-width="1" stroke-linecap="butt" stroke-linejoin="round" d="M 714.477 480.772 C 714.437 470.448 714.437 460.129 714.477 449.815 "/>
<path fill="none" stroke="#f8f8f8" stroke-width="1" stroke-linecap="butt" stroke-linejoin="round" d="M 714.477 449.815 C 724.755 449.810 735.074 449.810 745.432 449.815 "/>
<path fill="none" stroke="#f8f8f8" stroke-width="1" stroke-linecap="butt" stroke-linejoin="round" d="M 745.432 449.815 C 745.393 460.129 745.393 470.448 745.432 480.772 "/>
<path fill="none" stroke="#f8f8f8" stroke-width="1" stroke-linecap="butt" stroke-linejoin="round" d="M 745.432 480.772 C 755.707 480.767 766.020 480.767 776.374 480.772 "/>
<path fill="#f8f8f8" fill-rule="evenodd" stroke="none" d="M 892.439 480.772 C 892.397 491.086 892.397 501.405 892.439 511.728 C 882.079 511.724 871.760 511.724 861.482 511.728 C 861.441 522.042 861.441 532.362 861.482 542.685 C 851.122 542.680 840.803 542.680 830.524 542.685 C 830.484 532.362 830.484 522.043 830.524 511.728 C 820.181 511.724 809.878 511.723 799.615 511.728 C 799.574 501.405 799.574 491.086 799.615 480.772 C 809.878 480.767 820.181 480.767 830.524 480.772 C 830.484 470.448 830.484 460.129 830.524 449.815 C 840.803 449.810 851.122 449.810 861.482 449.815 C 861.441 460.129 861.441 470.448 861.482 480.772 C 871.760 480.767 882.079 480.767 892.439 480.772 M 776.374 480.772 C 776.335 491.086 776.335 501.405 776.374 511.728 C 766.020 511.723 755.707 511.724 745.432 511.728 C 745.393 522.042 745.393 532.362 745.432 542.685 C 735.074 542.680 724.755 542.680 714.477 542.685 C 714.437 532.362 714.437 522.042 714.477 511.728 C 704.118 511.724 693.799 511.724 683.519 511.728 C 683.480 501.405 683.480 491.086 683.519 480.772 C 693.799 480.767 704.118 480.767 714.477 480.772 C 714.437 470.448 714.437 460.129 714.477 449.815 C 724.755 449.810 735.074 449.810 745.432 449.815 C 745.393 460.129 745.393 470.448 745.432 480.772 C 755.707 480.767 766.020 480.767 776.374 480.772 Z"/>
</g>
</svg>
