<?xml version="1.0" encoding="utf-8"?>
<!-- Generator: Moho 13.0.3 build 643 -->
<!DOCTYPE svg PUBLIC "-//W3C//DTD SVG 1.1//EN" "http://www.w3.org/Graphics/SVG/1.1/DTD/svg11.dtd">
<svg version="1.1" id="Frame_1" xmlns="http://www.w3.org/2000/svg" xmlns:xlink="http://www.w3.org/1999/xlink" width="1000px" height="1000px">
<g id="Layer_21">
<path fill="#0096dc" fill-rule="evenodd" stroke="none" d="M 703.519 725.407 C 719.202 553.386 734.880 381.370 750.571 209.357 C 580.681 209.319 410.796 209.285 240.914 209.246 C 243.657 243.039 246.401 276.834 249.147 310.632 C 379.656 310.658 510.167 310.676 640.682 310.711 C 637.388 345.714 634.098 380.720 630.816 415.730 C 545.225 415.723 459.641 415.727 374.060 415.730 C 377.150 448.891 380.243 482.057 383.339 515.227 C 463.020 515.223 542.703 515.224 622.391 515.227 C 617.669 560.635 612.953 606.048 608.241 651.466 C 570.723 661.825 533.212 672.190 495.703 682.559 C 457.599 672.111 419.502 661.661 381.404 651.228 C 378.977 624.026 376.545 596.831 374.123 569.640 C 340.478 569.637 306.837 569.635 273.197 569.640 C 276.933 619.325 280.672 669.015 284.413 718.712 C 354.856 740.656 425.302 762.604 495.750 784.563 C 565.001 764.835 634.258 745.120 703.519 725.407 M 163.657 872.496 C 139.012 594.562 114.362 316.636 89.716 38.710 C 360.398 38.709 631.079 38.713 901.770 38.710 C 877.144 316.652 852.537 594.594 827.924 872.544 C 716.897 903.947 605.877 935.355 494.862 966.775 C 384.458 935.339 274.057 903.913 163.657 872.496 Z"/>
<path fill="none" stroke="#ffffff" stroke-width="1" stroke-linecap="butt" stroke-linejoin="round" d="M 750.571 209.357 C 580.681 209.319 410.796 209.285 240.914 209.246 "/>
<path fill="none" stroke="#ffffff" stroke-width="1" stroke-linecap="butt" stroke-linejoin="round" d="M 240.914 209.246 C 243.657 243.039 246.401 276.834 249.147 310.632 "/>
<path fill="none" stroke="#ffffff" stroke-width="1" stroke-linecap="butt" stroke-linejoin="round" d="M 249.147 310.632 C 379.656 310.658 510.167 310.676 640.682 310.711 "/>
<path fill="none" stroke="#ffffff" stroke-width="1" stroke-linecap="butt" stroke-linejoin="round" d="M 640.682 310.711 C 637.388 345.714 634.098 380.720 630.816 415.730 "/>
<path fill="none" stroke="#ffffff" stroke-width="1" stroke-linecap="butt" stroke-linejoin="round" d="M 630.816 415.730 C 545.225 415.723 459.641 415.727 374.060 415.730 "/>
<path fill="none" stroke="#ffffff" stroke-width="1" stroke-linecap="butt" stroke-linejoin="round" d="M 374.060 415.730 C 377.150 448.891 380.243 482.057 383.339 515.227 "/>
<path fill="none" stroke="#ffffff" stroke-width="1" stroke-linecap="butt" stroke-linejoin="round" d="M 383.339 515.227 C 463.020 515.223 542.703 515.224 622.391 515.227 "/>
<path fill="none" stroke="#ffffff" stroke-width="1" stroke-linecap="butt" stroke-linejoin="round" d="M 622.391 515.227 C 617.669 560.635 612.953 606.048 608.241 651.466 "/>
<path fill="none" stroke="#ffffff" stroke-width="1" stroke-linecap="butt" stroke-linejoin="round" d="M 608.241 651.466 C 570.723 661.825 533.212 672.190 495.703 682.559 "/>
<path fill="none" stroke="#ffffff" stroke-width="1" stroke-linecap="butt" stroke-linejoin="round" d="M 495.703 682.559 C 457.599 672.111 419.502 661.661 381.404 651.228 "/>
<path fill="none" stroke="#ffffff" stroke-width="1" stroke-linecap="butt" stroke-linejoin="round" d="M 381.404 651.228 C 378.977 624.026 376.545 596.831 374.123 569.640 "/>
<path fill="none" stroke="#ffffff" stroke-width="1" stroke-linecap="butt" stroke-linejoin="round" d="M 374.123 569.640 C 340.478 569.637 306.837 569.635 273.197 569.640 "/>
<path fill="none" stroke="#ffffff" stroke-width="1" stroke-linecap="butt" stroke-linejoin="round" d="M 273.197 569.640 C 276.933 619.325 280.672 669.015 284.413 718.712 "/>
<path fill="none" stroke="#ffffff" stroke-width="1" stroke-linecap="butt" stroke-linejoin="round" d="M 284.413 718.712 C 354.856 740.656 425.302 762.604 495.750 784.563 "/>
<path fill="none" stroke="#ffffff" stroke-width="1" stroke-linecap="butt" stroke-linejoin="round" d="M 495.750 784.563 C 565.001 764.835 634.258 745.120 703.519 725.407 "/>
<path fill="none" stroke="#ffffff" stroke-width="1" stroke-linecap="butt" stroke-linejoin="round" d="M 703.519 725.407 C 719.202 553.386 734.880 381.370 750.571 209.357 "/>
<path fill="#ffffff" fill-rule="evenodd" stroke="none" d="M 750.571 209.357 C 580.681 209.319 410.796 209.285 240.914 209.246 C 243.657 243.039 246.401 276.834 249.147 310.632 C 379.656 310.658 510.167 310.676 640.682 310.711 C 637.388 345.714 634.098 380.720 630.816 415.730 C 545.225 415.723 459.641 415.727 374.060 415.730 C 377.150 448.891 380.243 482.057 383.339 515.227 C 463.020 515.223 542.703 515.224 622.391 515.227 C 617.669 560.635 612.953 606.048 608.241 651.466 C 570.723 661.825 533.212 672.190 495.703 682.559 C 457.599 672.111 419.502 661.661 381.404 651.228 C 378.977 624.026 376.545 596.831 374.123 569.640 C 340.478 569.637 306.837 569.635 273.197 569.640 C 276.933 619.325 280.672 669.015 284.413 718.712 C 354.856 740.656 425.302 762.604 495.750 784.563 C 565.001 764.835 634.258 745.120 703.519 725.407 C 719.202 553.386 734.880 381.370 750.571 209.357 Z"/>
<path fill="#000000" fill-rule="evenodd" fill-opacity="0.207843" stroke="none" d="M 820.880 123.089 C 820.880 123.090 764.410 806.054 764.404 806.123 C 764.378 806.130 496.158 883.768 496.132 883.775 C 496.132 883.700 496.132 124.926 496.132 124.851 C 496.164 124.850 820.848 123.090 820.880 123.089 M 163.657 872.496 C 139.012 594.562 114.362 316.636 89.716 38.710 C 360.398 38.709 631.079 38.713 901.770 38.710 C 877.144 316.652 852.537 594.594 827.924 872.544 C 716.897 903.947 605.877 935.355 494.862 966.775 C 384.458 935.339 274.057 903.913 163.657 872.496 Z"/>
</g>
</svg>
