<?xml version="1.0" encoding="utf-8"?>
<!-- Generator: Moho 13.0.3 build 643 -->
<!DOCTYPE svg PUBLIC "-//W3C//DTD SVG 1.1//EN" "http://www.w3.org/Graphics/SVG/1.1/DTD/svg11.dtd">
<svg version="1.1" id="Frame_4" xmlns="http://www.w3.org/2000/svg" xmlns:xlink="http://www.w3.org/1999/xlink" width="1000px" height="1000px">
<g id="Layer_21">
<path fill="#e94e32" fill-rule="evenodd" stroke="none" d="M 946.758 456.168 C 809.227 318.703 671.757 181.242 534.339 43.781 C 510.565 20.047 472.070 20.047 448.216 43.781 C 419.682 72.312 391.199 100.840 362.771 129.372 C 398.926 165.582 435.139 201.790 471.402 238.003 C 496.784 229.542 525.668 235.251 545.738 255.360 C 566.050 275.631 571.641 304.877 562.982 330.148 C 597.799 365.041 632.665 399.940 667.592 434.839 C 692.980 426.060 722.188 431.762 742.381 451.953 C 770.757 480.288 770.756 526.097 742.381 554.432 C 714.082 582.732 668.347 582.731 640.048 554.432 C 618.835 533.142 613.518 501.817 624.143 475.882 C 591.435 443.398 558.783 410.918 526.185 378.440 C 526.131 464.037 526.134 549.637 526.185 635.243 C 533.109 638.627 539.639 643.231 545.383 648.936 C 573.445 677.314 573.447 723.049 545.383 751.269 C 517.087 779.642 471.044 779.643 442.710 751.269 C 414.411 722.971 414.412 677.316 442.710 649.016 C 449.874 641.930 457.944 636.575 466.525 633.031 C 466.469 546.586 466.491 460.146 466.525 373.710 C 457.984 370.130 449.833 364.979 442.904 357.935 C 421.447 336.485 416.300 305.107 427.323 278.852 C 391.692 243.100 356.108 207.356 320.581 171.609 C 226.257 265.818 131.976 360.019 37.751 454.230 C 14.135 478.042 14.135 516.574 37.751 540.385 C 175.190 677.830 312.677 815.281 450.218 952.740 C 473.992 976.513 512.486 976.513 536.260 952.740 C 673.037 815.899 809.868 679.068 946.758 542.242 C 970.569 518.510 970.569 479.979 946.758 456.168 Z"/>
</g>
</svg>
