<?xml version="1.0" encoding="utf-8"?>
<!-- Generator: Moho 13.0.3 build 643 -->
<!DOCTYPE svg PUBLIC "-//W3C//DTD SVG 1.1//EN" "http://www.w3.org/Graphics/SVG/1.1/DTD/svg11.dtd">
<svg version="1.1" id="Frame_9" xmlns="http://www.w3.org/2000/svg" xmlns:xlink="http://www.w3.org/1999/xlink" width="1000px" height="1000px">
<g id="Layer_21">
<path fill="#db0094" fill-rule="evenodd" stroke="none" d="M 510.993 808.110 C 535.725 808.109 557.935 818.714 573.438 835.635 C 637.894 798.308 702.522 761.046 767.230 723.690 C 766.636 721.837 766.160 719.984 765.725 718.091 C 595.766 718.212 425.946 718.038 256.261 718.091 C 255.852 719.174 255.576 720.263 255.435 721.360 C 320.252 758.836 385.187 796.345 450.263 833.855 C 465.564 817.924 487.096 808.111 510.993 808.110 M 789.431 636.794 C 704.307 489.730 619.377 342.640 534.554 195.568 C 519.169 199.986 502.876 199.987 487.530 195.568 C 402.458 342.679 317.514 489.787 232.717 636.908 C 244.317 648.072 252.522 662.353 256.391 677.977 C 426.011 677.964 595.767 678.000 765.661 677.977 C 769.484 662.279 777.759 647.958 789.431 636.794 M 452.739 175.536 C 452.582 175.530 452.551 175.548 452.658 175.568 C 353.374 313.419 283.083 470.006 197.893 616.923 C 196.653 616.611 195.549 616.301 194.577 616.001 C 194.634 540.951 194.658 465.906 194.577 390.865 C 195.561 390.586 196.547 390.342 197.570 390.023 C 242.265 377.007 268.105 330.470 255.210 285.701 C 320.105 248.204 385.131 210.702 450.296 173.206 C 450.947 173.991 451.776 174.734 452.658 175.568 M 766.680 285.976 C 701.461 248.485 636.485 210.814 571.594 173.238 C 570.840 174.070 570.127 174.783 569.295 175.536 C 654.112 322.662 738.544 470.091 824.157 616.923 C 825.179 616.565 826.356 616.280 827.377 616.001 C 826.975 540.962 827.236 465.928 827.377 390.898 C 782.219 379.734 754.791 334.036 765.936 288.824 C 766.170 287.874 766.405 286.885 766.680 285.976 M 595.412 114.320 C 595.451 122.564 594.228 130.808 591.901 138.658 C 656.652 176.128 721.538 213.599 786.567 251.072 C 818.749 217.191 872.272 215.846 906.149 248.029 C 911.988 253.553 916.957 259.905 921.021 266.849 C 944.251 307.397 930.170 359.098 889.628 382.337 C 882.766 386.283 875.392 389.245 867.621 391.141 C 867.497 466.068 867.482 540.999 867.621 615.936 C 912.822 626.705 940.737 672.064 929.937 717.266 C 928.045 725.311 924.933 733.041 920.794 740.179 C 897.448 780.534 845.806 794.378 805.338 771.021 C 797.606 766.563 790.548 760.802 784.593 754.096 C 719.955 791.318 655.464 828.565 591.108 865.813 C 605.784 910.146 581.729 957.919 537.434 972.548 C 528.870 975.349 519.990 976.806 510.993 976.804 C 464.410 976.835 426.617 939.129 426.590 892.546 C 426.591 884.462 427.741 876.379 430.069 868.532 C 365.043 831.077 300.136 793.656 235.370 756.232 C 203.182 789.921 149.726 791.229 115.998 758.999 C 82.315 726.812 81.062 673.366 113.247 639.642 C 124.411 627.927 138.731 619.682 154.430 615.856 C 154.310 540.918 154.317 465.987 154.462 391.059 C 109.099 380.174 81.174 334.534 92.098 289.131 C 93.951 281.319 96.948 273.784 100.933 266.801 C 124.283 226.408 175.958 212.606 216.389 235.958 C 223.370 239.942 229.760 244.952 235.322 250.829 C 300.112 213.356 365.039 175.884 430.101 138.415 C 416.848 93.721 442.370 46.813 486.947 33.606 C 494.713 31.282 502.873 30.142 510.993 30.143 C 557.579 30.109 595.372 67.773 595.412 114.320 Z"/>
</g>
</svg>
