<?xml version="1.0" encoding="utf-8"?>
<!-- Generator: Moho 13.0.3 build 643 -->
<!DOCTYPE svg PUBLIC "-//W3C//DTD SVG 1.1//EN" "http://www.w3.org/Graphics/SVG/1.1/DTD/svg11.dtd">
<svg version="1.1" id="Frame_13" xmlns="http://www.w3.org/2000/svg" xmlns:xlink="http://www.w3.org/1999/xlink" width="1000px" height="1000px">
<g id="Layer_21">
<path fill="#f16529" fill-rule="evenodd" stroke="none" d="M 355.168 413.690 C 354.911 413.679 354.919 413.662 355.168 413.642 C 481.572 413.686 608.180 413.684 734.990 413.690 C 724.963 521.347 715.137 629.005 705.523 736.674 C 634.318 755.713 563.323 774.767 492.529 793.820 C 420.763 774.675 349.205 755.527 277.846 736.398 C 273.288 681.339 268.925 626.289 264.770 571.242 C 299.005 571.236 333.443 571.236 368.082 571.242 C 370.361 599.086 372.842 626.932 375.522 654.786 C 414.323 665.474 453.324 676.170 492.529 686.869 C 530.738 676.251 569.148 665.638 607.766 655.030 C 611.863 609.805 616.158 564.587 620.664 519.375 C 500.009 519.376 379.559 519.368 259.311 519.375 C 249.895 413.649 240.677 307.928 231.664 202.208 C 405.370 202.242 579.278 202.293 753.395 202.321 C 750.155 236.925 747.126 271.529 744.298 306.138 C 611.324 306.105 478.557 306.067 345.991 306.024 C 348.849 341.893 351.905 377.766 355.168 413.642 M 152.522 881.361 C 127.074 596.762 101.825 312.172 76.775 27.583 C 353.748 27.582 630.919 27.582 908.299 27.583 C 882.882 312.189 857.671 596.795 832.666 881.409 C 718.777 913.564 605.096 945.727 491.619 977.899 C 378.383 945.710 265.354 913.530 152.522 881.361 Z"/>
<path fill="none" stroke="#ffffff" stroke-width="1" stroke-linecap="butt" stroke-linejoin="round" d="M 355.168 413.642 C 351.905 377.766 348.849 341.893 345.991 306.024 "/>
<path fill="none" stroke="#ffffff" stroke-width="1" stroke-linecap="butt" stroke-linejoin="round" d="M 345.991 306.024 C 478.557 306.067 611.324 306.105 744.298 306.138 "/>
<path fill="none" stroke="#ffffff" stroke-width="1" stroke-linecap="butt" stroke-linejoin="round" d="M 744.298 306.138 C 747.126 271.529 750.155 236.925 753.395 202.321 "/>
<path fill="none" stroke="#ffffff" stroke-width="1" stroke-linecap="butt" stroke-linejoin="round" d="M 753.395 202.321 C 579.278 202.293 405.370 202.242 231.664 202.208 "/>
<path fill="none" stroke="#ffffff" stroke-width="1" stroke-linecap="butt" stroke-linejoin="round" d="M 231.664 202.208 C 240.677 307.928 249.895 413.649 259.311 519.375 "/>
<path fill="none" stroke="#ffffff" stroke-width="1" stroke-linecap="butt" stroke-linejoin="round" d="M 259.311 519.375 C 379.559 519.368 500.009 519.376 620.664 519.375 "/>
<path fill="none" stroke="#ffffff" stroke-width="1" stroke-linecap="butt" stroke-linejoin="round" d="M 620.664 519.375 C 616.158 564.587 611.863 609.805 607.766 655.030 "/>
<path fill="none" stroke="#ffffff" stroke-width="1" stroke-linecap="butt" stroke-linejoin="round" d="M 607.766 655.030 C 569.148 665.638 530.738 676.251 492.529 686.869 "/>
<path fill="none" stroke="#ffffff" stroke-width="1" stroke-linecap="butt" stroke-linejoin="round" d="M 492.529 686.869 C 453.324 676.170 414.323 665.474 375.522 654.786 "/>
<path fill="none" stroke="#ffffff" stroke-width="1" stroke-linecap="butt" stroke-linejoin="round" d="M 375.522 654.786 C 372.842 626.932 370.361 599.086 368.082 571.242 "/>
<path fill="none" stroke="#ffffff" stroke-width="1" stroke-linecap="butt" stroke-linejoin="round" d="M 368.082 571.242 C 333.443 571.236 299.005 571.236 264.770 571.242 "/>
<path fill="none" stroke="#ffffff" stroke-width="1" stroke-linecap="butt" stroke-linejoin="round" d="M 264.770 571.242 C 268.925 626.289 273.288 681.339 277.846 736.398 "/>
<path fill="none" stroke="#ffffff" stroke-width="1" stroke-linecap="butt" stroke-linejoin="round" d="M 277.846 736.398 C 349.205 755.527 420.763 774.675 492.529 793.820 "/>
<path fill="none" stroke="#ffffff" stroke-width="1" stroke-linecap="butt" stroke-linejoin="round" d="M 492.529 793.820 C 563.323 774.767 634.318 755.713 705.523 736.674 "/>
<path fill="none" stroke="#ffffff" stroke-width="1" stroke-linecap="butt" stroke-linejoin="round" d="M 705.523 736.674 C 715.137 629.005 724.963 521.347 734.990 413.690 "/>
<path fill="none" stroke="#ffffff" stroke-width="1" stroke-linecap="butt" stroke-linejoin="round" d="M 734.990 413.690 C 608.180 413.684 481.572 413.686 355.168 413.690 "/>
<path fill="none" stroke="#ffffff" stroke-width="1" stroke-linecap="butt" stroke-linejoin="round" d="M 355.168 413.690 C 354.911 413.679 354.919 413.662 355.168 413.642 "/>
<path fill="#ffffff" fill-rule="evenodd" stroke="none" d="M 355.168 413.642 C 351.905 377.766 348.849 341.893 345.991 306.024 C 478.557 306.067 611.324 306.105 744.298 306.138 C 747.126 271.529 750.155 236.925 753.395 202.321 C 579.278 202.293 405.370 202.242 231.664 202.208 C 240.677 307.928 249.895 413.649 259.311 519.375 C 379.559 519.368 500.009 519.376 620.664 519.375 C 616.158 564.587 611.863 609.805 607.766 655.030 C 569.148 665.638 530.738 676.251 492.529 686.869 C 453.324 676.170 414.323 665.474 375.522 654.786 C 372.842 626.932 370.361 599.086 368.082 571.242 C 333.443 571.236 299.005 571.236 264.770 571.242 C 268.925 626.289 273.288 681.339 277.846 736.398 C 349.205 755.527 420.763 774.675 492.529 793.820 C 563.323 774.767 634.318 755.713 705.523 736.674 C 715.137 629.005 724.963 521.347 734.990 413.690 C 608.180 413.684 481.572 413.686 355.168 413.690 C 354.911 413.679 354.919 413.662 355.168 413.642 Z"/>
<path fill="#000000" fill-rule="evenodd" fill-opacity="0.219608" stroke="none" d="M 854.693 93.875 C 854.688 93.946 791.510 816.490 791.503 816.563 C 791.474 816.571 493.387 899.188 493.357 899.197 C 493.357 899.116 493.357 93.956 493.357 93.875 C 493.394 93.875 854.657 93.874 854.693 93.875 M 152.522 881.361 C 127.074 596.762 101.825 312.172 76.775 27.583 C 353.748 27.582 630.919 27.582 908.299 27.583 C 882.882 312.189 857.671 596.795 832.666 881.409 C 718.777 913.564 605.096 945.727 491.619 977.899 C 378.383 945.710 265.354 913.530 152.522 881.361 Z"/>
</g>
</svg>
