<?xml version="1.0" encoding="utf-8"?>
<!-- Generator: Moho 13.0.3 build 643 -->
<!DOCTYPE svg PUBLIC "-//W3C//DTD SVG 1.1//EN" "http://www.w3.org/Graphics/SVG/1.1/DTD/svg11.dtd">
<svg version="1.1" id="Frame_20" xmlns="http://www.w3.org/2000/svg" xmlns:xlink="http://www.w3.org/1999/xlink" width="1000px" height="1000px">
<g id="Layer_21">
<path fill="#0766a8" fill-rule="evenodd" stroke="none" d="M 493.125 33.442 C 753.691 33.440 963.895 243.636 963.897 504.201 C 963.899 764.771 753.695 974.976 493.125 974.974 C 232.560 974.971 22.364 764.767 22.366 504.201 C 22.369 243.639 232.563 33.444 493.125 33.442 Z"/>
<path fill="#ffffff" fill-rule="evenodd" stroke="none" d="M 556.990 161.468 C 497.222 256.240 564.679 364.962 660.356 399.315 C 660.997 399.584 661.883 399.856 663.015 400.131 C 745.440 424.867 806.574 387.888 848.684 321.241 C 743.398 460.817 502.146 283.050 577.297 133.394 C 571.764 140.827 566.315 148.309 560.935 155.853 C 559.607 157.716 558.211 159.533 556.990 161.468 M 390.008 219.371 C 340.123 325.647 361.002 432.567 437.003 520.118 C 437.664 521.017 438.565 521.920 439.711 522.827 C 443.148 526.144 446.708 529.368 450.273 532.622 C 450.180 532.746 450.327 532.880 450.718 533.017 C 454.759 536.594 458.948 539.998 463.197 543.319 C 464.220 544.013 465.094 544.827 466.090 545.521 C 470.310 548.777 474.554 551.927 478.965 555.018 C 478.872 555.106 479.027 555.195 479.423 555.290 C 485.491 559.196 491.567 563.087 497.652 566.966 C 498.165 567.177 498.618 567.447 499.099 567.658 C 501.815 569.314 504.775 570.903 507.608 572.382 C 508.601 572.985 509.564 573.440 510.589 574.014 C 512.606 575.012 514.595 576.070 516.524 577.094 C 516.602 577.230 516.926 577.370 517.489 577.515 C 521.562 579.501 525.725 581.367 529.795 583.240 C 530.821 583.633 531.690 583.969 532.565 584.391 C 665.313 630.029 805.377 583.350 868.125 454.275 C 767.911 557.235 626.464 560.461 511.342 480.283 C 424.205 394.466 382.191 284.116 427.753 165.895 C 417.616 180.132 407.512 194.391 397.440 208.674 C 394.938 212.222 391.853 215.441 390.008 219.371 M 201.258 284.176 C 197.959 288.372 193.834 292.051 191.426 296.815 C 138.277 401.992 139.200 511.567 190.165 617.399 C 195.584 626.800 201.112 636.103 206.811 645.337 C 219.511 663.029 232.764 680.079 246.721 696.797 C 250.679 701.854 254.982 706.280 259.656 710.277 C 262.067 712.750 264.476 715.224 267.040 717.635 C 267.811 718.603 268.826 719.575 270.082 720.554 C 273.429 723.689 276.690 726.924 280.297 729.842 C 280.803 730.416 281.365 730.928 282.177 731.438 C 285.249 734.121 288.350 736.807 291.514 739.279 C 292.530 740.328 293.788 741.383 295.286 742.445 C 297.851 744.493 300.504 746.446 303.128 748.467 C 304.252 749.506 305.614 750.556 307.221 751.608 C 316.913 758.609 312.940 755.838 319.069 760.043 C 319.119 760.268 319.413 760.498 319.947 760.735 C 322.531 762.584 325.353 764.446 328.419 766.313 C 329.381 767.110 330.585 767.914 332.030 768.725 C 336.461 771.562 340.866 774.245 345.238 776.899 C 351.601 780.419 357.930 783.988 364.408 787.301 C 366.668 788.567 369.018 789.808 371.431 791.073 C 387.035 797.710 402.620 804.367 418.340 810.724 C 585.346 870.950 771.173 787.614 850.490 634.911 C 740.517 742.421 594.032 764.943 452.561 708.954 C 451.625 708.652 450.840 708.228 449.902 707.866 C 417.405 691.799 387.324 673.156 358.051 651.792 C 356.621 650.843 355.435 649.900 354.489 648.960 C 351.083 646.206 347.708 643.382 344.422 640.489 C 344.092 640.154 343.700 639.851 343.309 639.586 C 339.577 636.404 336.095 633.221 332.846 630.050 C 331.599 629.101 330.591 628.158 329.829 627.219 C 327.357 624.719 324.826 622.308 322.297 619.836 C 321.079 618.825 320.110 617.818 319.378 616.817 C 316.183 613.647 313.052 610.421 310.053 607.084 C 309.665 606.919 309.518 606.757 309.608 606.602 C 224.537 495.082 193.117 367.995 241.167 233.606 C 227.835 250.439 214.532 267.296 201.258 284.176 M 280.297 729.842 C 280.361 729.840 280.393 729.899 280.458 729.928 M 246.721 696.797 C 246.720 696.857 246.809 696.917 246.868 697.007 Z"/>
</g>
</svg>
