<?xml version="1.0" encoding="utf-8"?>
<!-- Generator: Moho 13.0.3 build 643 -->
<!DOCTYPE svg PUBLIC "-//W3C//DTD SVG 1.1//EN" "http://www.w3.org/Graphics/SVG/1.1/DTD/svg11.dtd">
<svg version="1.1" id="Frame_19" xmlns="http://www.w3.org/2000/svg" xmlns:xlink="http://www.w3.org/1999/xlink" width="1000px" height="1000px">
<g id="Layer_21">
<path fill="#000000" fill-rule="evenodd" stroke="none" d="M 458.676 253.044 C 458.302 253.068 458.301 253.059 458.676 253.092 C 458.266 253.041 458.304 253.055 458.676 253.044 C 458.251 252.767 458.249 252.494 458.547 252.223 C 458.784 251.439 458.117 250.616 457.374 250.262 C 454.438 248.617 450.405 249.244 447.232 250.456 C 444.802 250.454 440.996 253.076 441.348 255.663 C 441.581 257.585 444.720 258.332 446.717 258.332 C 448.796 258.332 450.325 256.642 452.166 255.663 C 454.242 254.999 457.889 255.363 458.676 253.092 M 486.646 255.632 C 484.609 254.928 480.930 255.322 480.264 253.092 C 479.960 252.800 479.962 252.512 480.264 252.223 C 480.029 251.480 480.765 250.577 481.390 250.262 C 484.289 248.570 488.443 249.209 491.581 250.424 C 494.049 250.423 497.855 253.046 497.464 255.712 C 497.228 257.632 494.133 258.300 492.176 258.300 C 490.017 258.300 488.569 256.612 486.646 255.632 M 522.620 315.155 C 522.403 315.164 522.386 315.163 522.653 315.155 C 522.367 315.184 522.359 315.145 522.620 315.155 C 531.594 309.978 542.567 302.137 549.657 296.846 C 556.743 289.055 560.459 284.439 555.412 283.810 C 550.320 283.807 550.589 288.941 544.481 294.307 C 536.524 299.516 526.727 307.310 519.083 312.599 C 505.565 320.393 483.317 330.857 464.319 330.859 C 445.272 330.862 430.024 320.405 418.619 312.567 C 412.897 307.315 408.233 302.102 404.474 299.514 C 401.731 296.928 400.948 292.264 396.678 291.638 C 393.935 291.638 393.160 299.473 399.587 304.723 C 403.269 307.347 408.161 312.604 414.230 317.856 C 426.337 325.658 443.113 336.116 464.351 336.116 C 485.627 336.116 505.611 323.032 522.653 315.155 M 216.162 683.853 C 223.606 675.977 231.050 670.688 242.139 670.688 C 244.622 670.689 246.658 670.894 248.697 671.250 C 263.423 673.424 276.353 684.299 288.771 700.714 C 300.355 722.441 311.366 744.688 324.424 765.912 C 334.913 786.504 354.094 807.718 371.136 830.210 C 388.137 853.641 401.305 874.525 399.700 891.726 C 397.469 921.106 380.938 936.942 355.624 942.665 C 330.352 947.957 296.067 942.746 261.781 924.485 C 223.848 903.480 178.784 906.099 149.824 900.888 C 135.369 898.303 125.889 893.018 121.501 885.184 C 117.153 877.387 117.078 861.637 126.323 836.992 C 131.292 823.773 127.577 807.243 125.342 792.901 C 123.187 777.191 122.094 765.124 127.030 756.075 C 133.300 742.991 142.542 740.445 154.020 735.194 C 165.578 729.901 179.137 727.269 189.913 716.805 C 200.023 706.190 207.423 693.140 216.162 683.853 M 189.994 716.805 C 189.711 716.765 189.710 716.725 189.994 716.692 C 189.645 716.799 189.658 716.793 189.994 716.805 M 126.323 836.864 C 126.057 836.813 126.086 836.777 126.403 836.751 C 125.998 836.950 125.998 836.888 126.323 836.864 M 399.700 891.726 C 399.414 891.794 399.414 891.865 399.700 891.951 M 324.424 765.912 C 324.160 765.955 324.206 765.988 324.552 766.024 M 242.139 670.688 C 241.966 670.681 242.100 670.680 242.541 670.688 M 665.907 668.855 C 665.595 668.814 665.592 668.789 665.907 668.774 C 665.018 669.135 664.426 669.414 664.139 669.707 C 651.068 676.994 643.734 690.048 639.031 708.269 C 634.368 727.039 632.830 751.372 631.380 779.350 C 630.008 801.015 620.143 827.540 613.247 853.710 C 606.351 879.769 602.361 904.469 611.046 919.937 C 610.874 920.008 610.803 919.972 611.046 919.937 C 625.207 947.019 646.903 957.310 672.916 955.235 C 698.974 953.200 728.478 937.448 752.692 908.571 C 780.551 874.954 824.275 862.764 848.961 847.055 C 861.223 839.259 868.110 834.024 868.477 823.747 C 868.256 824.061 868.216 823.899 868.477 823.747 C 868.290 823.720 868.289 823.980 868.605 824.214 C 868.205 823.654 868.247 823.565 868.605 823.506 C 869.033 814.589 862.599 799.728 843.561 779.077 C 833.567 767.868 830.864 753.015 827.535 737.299 C 824.165 723.784 820.371 710.770 812.216 702.981 C 811.849 702.902 811.883 702.942 812.216 702.981 C 801.516 692.805 791.254 692.089 778.909 692.404 C 775.854 692.515 773.099 692.633 770.648 692.758 C 756.660 709.688 723.508 727.987 700.466 722.736 C 679.345 717.563 667.357 692.325 665.907 668.774 M 539.306 345.198 C 557.602 339.909 572.059 329.450 580.246 317.775 C 594.313 373.297 627.155 453.930 648.274 493.033 C 659.482 513.959 681.770 558.045 691.449 611.534 C 697.564 611.338 704.345 612.240 711.558 614.042 C 736.866 548.562 690.162 478.182 668.880 458.634 C 660.225 450.765 659.790 445.524 664.058 445.518 C 687.160 466.415 717.553 507.106 728.565 553.537 C 733.619 574.501 734.781 596.794 729.384 618.976 C 732.008 620.073 734.679 621.362 737.422 621.596 C 777.870 642.504 792.784 658.356 785.612 681.827 C 785.310 681.259 785.311 680.695 785.612 680.139 C 783.223 680.021 780.913 680.139 778.523 680.139 C 778.020 680.132 777.821 680.132 777.930 680.139 C 783.847 661.839 770.804 647.807 736.200 632.173 C 700.345 616.500 671.685 619.012 666.808 650.402 C 666.537 652.086 666.343 652.987 666.148 655.690 C 663.480 656.593 660.697 657.767 657.950 658.198 C 641.100 668.694 632.012 684.406 626.879 704.701 C 621.783 725.586 620.215 749.997 618.841 777.936 C 618.020 791.138 612.151 810.891 606.352 830.997 C 547.581 873.008 466.076 891.254 396.758 844.081 C 392.407 836.520 387.112 829.433 381.005 823.201 C 378.105 818.300 374.427 813.905 370.235 810.100 C 377.364 810.105 383.476 808.967 388.448 807.480 C 394.133 804.856 398.524 800.117 400.760 794.396 C 404.996 783.934 400.760 767.085 387.242 748.825 C 373.720 730.525 350.758 709.832 317.173 689.221 C 292.493 673.591 278.541 655.142 272.117 634.536 C 265.653 613.612 266.520 592.021 271.539 570.078 C 281.141 528.154 305.758 487.414 321.450 461.817 C 325.639 459.267 322.901 467.107 305.472 499.978 C 289.959 529.403 260.752 597.816 300.682 650.980 C 302.167 612.231 310.789 573.992 326.031 538.299 C 348.129 488.224 394.335 401.006 397.980 331.888 C 399.858 333.298 406.477 337.174 409.297 339.797 C 417.835 345.006 424.186 352.838 432.410 358.009 C 440.681 365.887 451.104 371.129 466.746 371.142 C 468.271 371.261 469.681 371.382 471.085 371.383 C 487.192 371.395 499.650 366.123 510.114 360.870 C 521.477 355.618 530.531 347.784 539.113 345.198 C 538.882 345.195 538.947 345.195 539.306 345.198 M 618.841 777.936 C 618.554 777.973 618.554 777.996 618.841 778.048 M 452.327 236.359 C 457.775 234.947 463.846 233.804 470.587 233.803 C 483.555 233.800 499.261 236.356 518.184 249.443 C 529.664 257.282 538.679 259.985 559.447 267.783 C 569.552 273.110 575.440 278.197 578.301 283.408 C 578.001 281.695 578.000 279.987 578.301 278.280 C 581.163 284.041 581.360 290.744 578.929 296.702 C 574.109 308.886 558.702 321.922 537.232 329.718 C 526.731 335.089 517.601 342.853 506.867 348.027 C 496.053 353.319 483.825 359.476 467.212 358.491 C 461.257 358.803 455.262 357.892 449.658 355.855 C 445.350 353.505 441.116 350.926 437.040 348.107 C 429.396 342.818 422.815 335.092 413.058 329.879 C 397.191 320.048 388.733 309.625 385.988 301.829 C 383.285 291.327 385.785 283.447 393.543 278.313 C 402.322 273.020 408.440 267.694 412.479 265.147 C 416.555 262.251 418.082 261.156 419.375 260.020 C 426.062 251.990 436.533 241.535 452.327 236.359 M 419.439 260.020 C 419.156 259.979 419.150 259.936 419.439 259.908 C 419.160 260.020 419.168 260.009 419.439 260.020 M 413.058 329.686 C 412.694 329.687 412.629 329.684 412.864 329.686 C 412.765 329.809 412.761 329.751 413.058 329.686 M 537.232 329.718 C 536.920 329.730 536.926 329.773 537.232 329.798 M 559.447 267.783 C 559.187 267.783 559.231 267.782 559.559 267.783 M 400.487 174.794 C 405.507 169.585 410.676 166.964 416.867 166.966 C 417.035 166.964 417.500 166.964 418.265 166.966 C 423.831 166.965 428.848 168.845 433.906 172.254 C 439.626 177.306 444.255 183.532 447.392 190.466 C 450.921 198.263 452.919 206.180 453.388 216.603 C 453.661 222.011 453.622 224.635 453.308 227.180 C 453.006 228.223 453.006 229.267 453.308 230.314 C 452.127 230.590 451.105 231.026 450.044 231.263 C 444.092 233.421 439.309 236.549 434.645 239.091 C 435.119 235.602 435.165 232.076 434.774 228.626 C 434.481 228.430 434.480 228.240 434.774 228.048 C 434.306 222.835 433.243 220.248 431.559 214.995 C 430.343 210.997 428.107 207.431 425.048 204.531 C 423.127 202.768 420.545 201.867 417.880 202.024 C 417.307 202.022 417.034 202.022 417.060 202.024 C 414.276 202.259 411.960 203.630 409.762 207.199 C 407.258 210.216 405.656 213.899 405.068 217.776 C 404.012 222.009 403.700 226.359 404.169 230.749 C 403.871 230.929 403.872 231.109 404.169 231.295 C 404.637 236.583 405.611 239.170 407.335 244.379 C 409.100 249.637 411.147 252.223 413.813 254.892 C 414.238 255.241 414.627 255.591 415.131 255.825 C 412.388 258.061 410.548 258.575 408.234 261.161 C 406.788 262.256 405.103 263.502 403.107 263.814 C 399.040 258.917 395.434 253.635 392.338 248.077 C 388.577 239.848 386.615 230.913 386.262 221.940 C 385.592 213.081 386.689 204.221 389.397 195.754 C 391.551 188.036 395.352 180.905 400.487 174.794 M 453.388 216.603 C 453.082 216.651 453.083 216.707 453.388 216.764 M 509.648 172.447 C 516.349 167.392 524.501 164.650 532.924 164.650 C 541.771 164.651 548.942 167.084 556.312 172.415 C 563.794 177.704 569.239 185.421 573.512 193.295 C 577.628 203.444 579.617 211.285 580.022 221.667 C 579.927 231.189 577.862 240.593 574.058 249.330 C 572.217 254.225 569.396 258.726 565.716 262.447 C 564.582 261.822 563.488 261.276 562.275 260.807 C 558.161 259.046 554.473 258.303 551.104 255.600 C 548.320 254.502 545.422 253.600 542.520 253.012 C 544.442 250.698 548.207 247.797 549.657 245.248 C 551.735 240.232 552.865 234.902 553.098 229.495 C 552.799 229.245 552.798 228.999 553.098 228.755 C 553.178 223.466 552.401 218.136 550.719 213.083 C 548.952 207.791 546.749 205.211 543.532 199.998 C 540.243 197.414 536.999 194.823 533.084 194.822 C 532.576 194.820 532.367 194.820 532.458 194.822 C 528.811 194.822 525.556 196.000 522.186 199.998 C 518.466 203.681 515.678 208.106 514.148 213.083 C 512.073 218.058 510.862 223.427 510.629 228.755 C 510.328 228.998 510.329 229.246 510.629 229.495 C 510.707 232.983 510.946 236.509 511.416 239.959 C 503.851 237.336 494.250 234.675 487.626 232.051 C 487.236 229.499 486.998 226.869 486.919 224.239 C 486.625 223.978 486.625 223.723 486.919 223.466 C 486.606 213.119 488.607 202.851 492.802 193.327 C 496.016 184.748 501.892 177.422 509.648 172.447 M 580.102 222.598 C 579.754 222.284 579.700 221.979 579.941 221.667 C 580.015 220.882 580.262 220.097 580.246 219.352 C 579.974 220.712 579.997 222.051 580.246 223.419 C 580.179 223.144 580.102 222.832 580.102 222.598 M 532.924 164.650 C 532.796 164.649 532.961 164.649 533.422 164.650 M 651.054 271.770 C 652.112 187.450 660.335 31.478 512.188 31.233 C 506.119 31.233 499.852 31.545 493.429 32.053 C 327.803 45.087 371.732 220.405 369.223 278.827 C 366.205 321.654 357.470 355.391 328.040 397.199 C 293.364 438.378 244.697 504.947 221.612 574.338 C 210.718 606.942 205.529 640.332 210.360 671.877 C 208.834 673.209 207.387 674.542 206.020 677.166 C 195.836 687.670 188.423 700.713 180.076 710.037 C 172.277 717.835 161.069 720.498 148.843 725.710 C 136.579 731.038 123.057 736.248 114.991 752.393 C 111.467 759.760 109.670 767.793 109.830 775.942 C 109.832 783.736 110.887 791.648 111.984 796.935 C 114.257 812.573 116.531 825.506 113.512 834.951 C 103.793 861.596 102.578 879.857 109.396 893.141 C 116.214 906.228 130.361 911.517 146.190 916.690 C 177.967 924.525 221.025 921.980 254.917 940.158 C 291.202 958.455 328.037 966.441 357.424 958.563 C 378.031 954.057 395.425 940.425 404.747 921.543 C 427.748 921.426 452.944 911.006 493.300 908.459 C 520.691 906.186 554.980 918.899 594.328 916.256 C 595.305 921.544 596.571 924.139 598.781 929.340 C 615.459 959.286 642.515 973.812 672.723 971.422 C 702.935 969.072 735.106 950.415 761.164 920.242 C 785.885 890.270 827.104 877.779 854.331 861.362 C 867.971 853.561 878.980 842.976 879.760 827.927 C 880.659 812.256 871.967 796.115 851.791 773.981 C 851.487 772.704 851.489 771.435 851.791 770.172 C 845.002 762.237 841.882 749.098 838.433 733.779 C 835.102 718.064 831.292 702.978 819.143 692.789 C 816.723 690.675 814.216 690.165 811.669 687.501 C 809.477 686.012 806.930 685.072 804.227 684.994 C 821.116 634.921 814.564 585.082 797.443 540.260 C 776.556 485.013 740.038 436.898 712.217 403.789 C 681.026 364.407 650.464 327.100 651.054 271.770 M 819.143 692.789 C 818.810 692.786 818.776 692.784 819.031 692.789 M 851.791 770.172 C 851.459 770.133 851.426 770.089 851.678 770.059 M 598.781 929.340 C 598.513 929.379 598.553 929.419 598.909 929.453 Z"/>
</g>
</svg>
