<?xml version="1.0" encoding="utf-8"?>
<!-- Generator: Moho 13.0.3 build 643 -->
<!DOCTYPE svg PUBLIC "-//W3C//DTD SVG 1.1//EN" "http://www.w3.org/Graphics/SVG/1.1/DTD/svg11.dtd">
<svg version="1.1" id="Frame_16" xmlns="http://www.w3.org/2000/svg" xmlns:xlink="http://www.w3.org/1999/xlink" width="1000px" height="1000px">
<g id="Layer_21">
<path fill="#000000" fill-rule="evenodd" stroke="none" d="M 505.415 30.586 C 505.414 30.589 506.383 43.905 496.546 64.933 C 485.080 89.442 402.515 151.684 365.954 221.968 C 319.229 311.795 300.315 413.557 300.185 474.574 C 300.074 526.119 311.750 607.377 353.005 688.657 C 393.241 767.927 490.926 853.628 490.940 853.645 C 490.941 853.650 499.067 884.996 502.137 906.258 C 505.281 928.032 506.362 961.178 506.362 961.183 C 506.365 961.184 532.224 971.047 532.227 971.047 C 532.227 971.039 524.198 913.492 529.207 888.458 C 531.917 874.915 546.812 847.367 546.813 847.363 C 546.830 847.335 659.838 775.307 712.653 570.000 C 722.286 532.555 718.133 422.471 709.713 390.956 C 690.048 317.357 555.004 115.004 535.054 83.713 C 532.281 79.363 526.371 68.859 520.548 58.234 C 514.445 47.247 505.417 30.589 505.415 30.586 Z"/>
<path fill="none" stroke="#69b23f" stroke-width="1" stroke-linecap="butt" stroke-linejoin="round" d="M 505.415 30.586 C 505.414 30.589 506.383 43.905 496.546 64.933 "/>
<path fill="none" stroke="#69b23f" stroke-width="1" stroke-linecap="butt" stroke-linejoin="round" d="M 496.546 64.933 C 485.080 89.442 402.515 151.684 365.954 221.968 "/>
<path fill="none" stroke="#69b23f" stroke-width="1" stroke-linecap="butt" stroke-linejoin="round" d="M 365.954 221.968 C 319.229 311.795 300.315 413.557 300.185 474.574 "/>
<path fill="none" stroke="#69b23f" stroke-width="1" stroke-linecap="butt" stroke-linejoin="round" d="M 300.185 474.574 C 300.074 526.119 311.750 607.377 353.005 688.657 "/>
<path fill="none" stroke="#69b23f" stroke-width="1" stroke-linecap="butt" stroke-linejoin="round" d="M 353.005 688.657 C 393.241 767.927 490.926 853.628 490.940 853.645 "/>
<path fill="none" stroke="#69b23f" stroke-width="1" stroke-linecap="butt" stroke-linejoin="round" d="M 490.940 853.645 C 490.941 853.650 499.067 884.996 502.137 906.258 "/>
<path fill="none" stroke="#69b23f" stroke-width="1" stroke-linecap="butt" stroke-linejoin="round" d="M 502.137 906.258 C 505.281 928.032 506.362 961.178 506.362 961.183 "/>
<path fill="none" stroke="#69b23f" stroke-width="1" stroke-linecap="butt" stroke-linejoin="round" d="M 506.362 961.183 C 506.365 961.184 532.224 971.047 532.227 971.047 "/>
<path fill="none" stroke="#69b23f" stroke-width="1" stroke-linecap="butt" stroke-linejoin="round" d="M 532.227 971.047 C 532.227 971.039 524.198 913.492 529.207 888.458 "/>
<path fill="none" stroke="#69b23f" stroke-width="1" stroke-linecap="butt" stroke-linejoin="round" d="M 529.207 888.458 C 531.917 874.915 546.812 847.367 546.813 847.363 "/>
<path fill="none" stroke="#69b23f" stroke-width="1" stroke-linecap="butt" stroke-linejoin="round" d="M 546.813 847.363 C 546.830 847.335 659.838 775.307 712.653 570.000 "/>
<path fill="none" stroke="#69b23f" stroke-width="1" stroke-linecap="butt" stroke-linejoin="round" d="M 712.653 570.000 C 722.286 532.555 718.133 422.471 709.713 390.956 "/>
<path fill="none" stroke="#69b23f" stroke-width="1" stroke-linecap="butt" stroke-linejoin="round" d="M 709.713 390.956 C 690.048 317.357 555.004 115.004 535.054 83.713 "/>
<path fill="none" stroke="#69b23f" stroke-width="1" stroke-linecap="butt" stroke-linejoin="round" d="M 535.054 83.713 C 532.281 79.363 526.371 68.859 520.548 58.234 "/>
<path fill="none" stroke="#69b23f" stroke-width="1" stroke-linecap="butt" stroke-linejoin="round" d="M 520.548 58.234 C 514.445 47.247 505.417 30.589 505.415 30.586 "/>
<path fill="#69b23f" fill-rule="evenodd" stroke="none" d="M 505.415 30.586 C 505.414 30.589 506.383 43.905 496.546 64.933 C 485.080 89.442 402.515 151.684 365.954 221.968 C 319.229 311.795 300.315 413.557 300.185 474.574 C 300.074 526.119 311.750 607.377 353.005 688.657 C 393.241 767.927 490.926 853.628 490.940 853.645 C 490.941 853.650 499.067 884.996 502.137 906.258 C 505.281 928.032 506.362 961.178 506.362 961.183 C 506.365 961.184 532.224 971.047 532.227 971.047 C 532.227 971.039 524.198 913.492 529.207 888.458 C 531.917 874.915 546.812 847.367 546.813 847.363 C 546.830 847.335 659.838 775.307 712.653 570.000 C 722.286 532.555 718.133 422.471 709.713 390.956 C 690.048 317.357 555.004 115.004 535.054 83.713 C 532.281 79.363 526.371 68.859 520.548 58.234 C 514.445 47.247 505.417 30.589 505.415 30.586 Z"/>
<path fill="none" stroke="#69b23f" stroke-width="1" stroke-linecap="butt" stroke-linejoin="round" d="M 546.813 847.363 C 546.830 847.335 659.838 775.307 712.653 570.000 "/>
<path fill="none" stroke="#69b23f" stroke-width="1" stroke-linecap="butt" stroke-linejoin="round" d="M 712.653 570.000 C 722.286 532.555 718.133 422.471 709.713 390.956 "/>
<path fill="none" stroke="#69b23f" stroke-width="1" stroke-linecap="butt" stroke-linejoin="round" d="M 709.713 390.956 C 690.048 317.357 555.004 115.004 535.054 83.713 "/>
<path fill="none" stroke="#69b23f" stroke-width="1" stroke-linecap="butt" stroke-linejoin="round" d="M 535.054 83.713 C 532.281 79.363 526.371 68.859 520.548 58.234 "/>
<path fill="none" stroke="#69b23f" stroke-width="1" stroke-linecap="butt" stroke-linejoin="round" d="M 520.548 58.234 C 514.445 47.247 505.417 30.589 505.415 30.586 "/>
<path fill="none" stroke="#69b23f" stroke-width="1" stroke-linecap="butt" stroke-linejoin="round" d="M 505.415 30.586 C 505.414 30.589 506.383 43.905 496.546 64.933 "/>
<path fill="none" stroke="#69b23f" stroke-width="1" stroke-linecap="butt" stroke-linejoin="round" d="M 496.546 64.933 C 485.080 89.442 402.515 151.684 365.954 221.968 "/>
<path fill="none" stroke="#69b23f" stroke-width="1" stroke-linecap="butt" stroke-linejoin="round" d="M 365.954 221.968 C 319.229 311.795 300.315 413.557 300.185 474.574 "/>
<path fill="none" stroke="#69b23f" stroke-width="1" stroke-linecap="butt" stroke-linejoin="round" d="M 300.185 474.574 C 300.074 526.119 311.750 607.377 353.005 688.657 "/>
<path fill="none" stroke="#69b23f" stroke-width="1" stroke-linecap="butt" stroke-linejoin="round" d="M 353.005 688.657 C 393.241 767.927 490.926 853.628 490.940 853.645 "/>
<path fill="none" stroke="#69b23f" stroke-width="1" stroke-linecap="butt" stroke-linejoin="round" d="M 490.940 853.645 C 490.941 853.650 499.067 884.996 502.137 906.258 "/>
<path fill="none" stroke="#69b23f" stroke-width="1" stroke-linecap="butt" stroke-linejoin="round" d="M 502.137 906.258 C 505.281 928.032 506.362 961.178 506.362 961.183 "/>
<path fill="none" stroke="#69b23f" stroke-width="1" stroke-linecap="butt" stroke-linejoin="round" d="M 506.362 961.183 C 506.365 961.184 532.224 971.047 532.227 971.047 "/>
<path fill="none" stroke="#69b23f" stroke-width="1" stroke-linecap="butt" stroke-linejoin="round" d="M 532.227 971.047 C 532.227 971.039 524.198 913.492 529.207 888.458 "/>
<path fill="none" stroke="#69b23f" stroke-width="1" stroke-linecap="butt" stroke-linejoin="round" d="M 529.207 888.458 C 531.917 874.915 546.812 847.367 546.813 847.363 "/>
<path fill="#69b23f" fill-rule="evenodd" stroke="none" d="M 518.057 779.858 C 518.060 779.865 537.228 824.861 546.813 847.363 C 546.830 847.335 659.838 775.307 712.653 570.000 C 722.286 532.555 718.133 422.471 709.713 390.956 C 690.048 317.357 555.004 115.004 535.054 83.713 C 532.281 79.363 526.371 68.859 520.548 58.234 C 514.445 47.247 505.417 30.589 505.415 30.586 C 505.414 30.589 506.383 43.905 496.546 64.933 C 485.080 89.442 402.515 151.684 365.954 221.968 C 319.229 311.795 300.315 413.557 300.185 474.574 C 300.074 526.119 311.750 607.377 353.005 688.657 C 393.241 767.927 490.926 853.628 490.940 853.645 C 490.941 853.650 499.067 884.996 502.137 906.258 C 505.281 928.032 506.362 961.178 506.362 961.183 C 506.365 961.184 532.224 971.047 532.227 971.047 C 532.227 971.039 524.198 913.492 529.207 888.458 C 531.917 874.915 546.812 847.367 546.813 847.363 Z"/>
<path fill="none" stroke="#599736" stroke-width="1" stroke-linecap="butt" stroke-linejoin="round" d="M 520.548 58.234 C 526.371 68.859 532.281 79.363 535.054 83.713 "/>
<path fill="none" stroke="#599736" stroke-width="1" stroke-linecap="butt" stroke-linejoin="round" d="M 535.054 83.713 C 555.004 115.004 690.048 317.357 709.713 390.956 "/>
<path fill="none" stroke="#599736" stroke-width="1" stroke-linecap="butt" stroke-linejoin="round" d="M 709.713 390.956 C 718.133 422.471 722.286 532.555 712.653 570.000 "/>
<path fill="none" stroke="#599736" stroke-width="1" stroke-linecap="butt" stroke-linejoin="round" d="M 712.653 570.000 C 659.838 775.307 546.830 847.335 546.813 847.363 "/>
<path fill="none" stroke="#599736" stroke-width="1" stroke-linecap="butt" stroke-linejoin="round" d="M 546.813 847.363 C 537.228 824.861 518.060 779.865 518.057 779.858 "/>
<path fill="#599736" fill-rule="evenodd" stroke="none" d="M 518.057 779.858 C 518.773 513.285 519.343 300.026 520.548 58.234 C 526.371 68.859 532.281 79.363 535.054 83.713 C 555.004 115.004 690.048 317.357 709.713 390.956 C 718.133 422.471 722.286 532.555 712.653 570.000 C 659.838 775.307 546.830 847.335 546.813 847.363 C 537.228 824.861 518.060 779.865 518.057 779.858 Z"/>
<path fill="none" stroke="#c0c1bc" stroke-width="1" stroke-linecap="butt" stroke-linejoin="round" d="M 518.057 779.858 C 518.060 779.865 537.228 824.861 546.813 847.363 "/>
<path fill="none" stroke="#c0c1bc" stroke-width="1" stroke-linecap="butt" stroke-linejoin="round" d="M 546.813 847.363 C 546.812 847.367 531.917 874.915 529.207 888.458 "/>
<path fill="none" stroke="#c0c1bc" stroke-width="1" stroke-linecap="butt" stroke-linejoin="round" d="M 529.207 888.458 C 524.198 913.492 532.227 971.039 532.227 971.047 "/>
<path fill="none" stroke="#c0c1bc" stroke-width="1" stroke-linecap="butt" stroke-linejoin="round" d="M 532.227 971.047 C 532.224 971.047 506.365 961.184 506.362 961.183 "/>
<path fill="none" stroke="#c0c1bc" stroke-width="1" stroke-linecap="butt" stroke-linejoin="round" d="M 506.362 961.183 C 506.362 961.178 505.281 928.032 502.137 906.258 "/>
<path fill="none" stroke="#c0c1bc" stroke-width="1" stroke-linecap="butt" stroke-linejoin="round" d="M 502.137 906.258 C 499.067 884.996 490.941 853.650 490.940 853.645 "/>
<path fill="#c0c1bc" fill-rule="evenodd" stroke="none" d="M 518.057 779.858 C 518.060 779.865 537.228 824.861 546.813 847.363 C 546.812 847.367 531.917 874.915 529.207 888.458 C 524.198 913.492 532.227 971.039 532.227 971.047 C 532.224 971.047 506.365 961.184 506.362 961.183 C 506.362 961.178 505.281 928.032 502.137 906.258 C 499.067 884.996 490.941 853.650 490.940 853.645 C 499.979 829.049 518.055 779.865 518.057 779.858 Z"/>
</g>
</svg>
