<?xml version="1.0" encoding="utf-8"?>
<!-- Generator: Moho 13.0.3 build 643 -->
<!DOCTYPE svg PUBLIC "-//W3C//DTD SVG 1.1//EN" "http://www.w3.org/Graphics/SVG/1.1/DTD/svg11.dtd">
<svg version="1.1" id="Frame_14" xmlns="http://www.w3.org/2000/svg" xmlns:xlink="http://www.w3.org/1999/xlink" width="1000px" height="1000px">
<g id="Layer_3">
<path fill="#000000" fill-rule="evenodd" stroke="none" d="M 39.225 39.225 C 39.317 39.225 960.683 39.225 960.775 39.225 C 960.775 39.317 960.775 960.683 960.775 960.775 C 960.683 960.775 39.317 960.775 39.225 960.775 C 39.225 960.683 39.225 39.317 39.225 39.225 Z"/>
<path fill="#ffffff" fill-rule="evenodd" stroke="none" d="M 156.788 413.682 C 156.788 413.734 157.552 932.410 157.553 932.461 C 157.587 932.461 501.609 932.461 501.643 932.461 C 501.643 932.444 501.643 761.234 501.643 761.216 C 501.626 761.217 328.815 762.817 328.798 762.817 C 328.797 762.783 327.650 415.074 327.650 415.039 C 327.632 415.039 156.805 413.682 156.788 413.682 Z"/>
<path fill="#01b7ee" fill-rule="evenodd" stroke="none" d="M 844.691 416.673 C 844.691 607.183 691.006 760.869 500.496 760.869 C 500.496 703.690 500.496 646.510 500.496 589.330 C 596.060 589.330 673.152 512.238 673.151 416.673 C 730.331 416.673 787.511 416.673 844.691 416.673 Z"/>
<path fill="none" stroke="#35df79" stroke-width="1" stroke-linecap="butt" stroke-linejoin="round" d="M 844.691 416.673 C 787.511 416.673 730.331 416.673 673.151 416.673 "/>
<path fill="#35df79" fill-rule="evenodd" stroke="none" d="M 500.496 72.478 C 691.006 72.478 844.691 226.163 844.691 416.673 C 787.511 416.673 730.331 416.673 673.151 416.673 C 673.151 321.110 596.059 244.018 500.496 244.018 C 500.496 186.838 500.496 129.658 500.496 72.478 Z"/>
<path fill="none" stroke="#d4fd02" stroke-width="1" stroke-linecap="butt" stroke-linejoin="round" d="M 500.496 72.478 C 500.496 129.658 500.496 186.838 500.496 244.018 "/>
<path fill="#d4fd02" fill-rule="evenodd" stroke="none" d="M 156.299 416.673 C 156.300 226.163 309.986 72.478 500.496 72.478 C 500.496 129.658 500.496 186.838 500.496 244.018 C 404.931 244.017 327.839 321.109 327.839 416.673 C 270.659 416.673 213.479 416.673 156.299 416.673 Z"/>
</g>
</svg>
