<?xml version="1.0" encoding="utf-8"?>
<!-- Generator: Moho 13.0.3 build 643 -->
<!DOCTYPE svg PUBLIC "-//W3C//DTD SVG 1.1//EN" "http://www.w3.org/Graphics/SVG/1.1/DTD/svg11.dtd">
<svg version="1.1" id="Frame_11" xmlns="http://www.w3.org/2000/svg" xmlns:xlink="http://www.w3.org/1999/xlink" width="1000px" height="1000px">
<g id="Layer_21">
<path fill="#3c78aa" fill-rule="evenodd" stroke="none" d="M 580.925 36.168 C 592.745 38.822 604.573 41.441 616.404 44.044 C 625.987 47.496 635.581 50.914 645.188 54.295 C 652.769 58.236 660.520 62.176 668.443 66.116 C 674.185 70.320 680.099 74.523 686.182 78.730 C 690.475 83.197 694.934 87.669 699.572 92.135 C 702.686 96.605 705.975 101.072 709.436 105.541 C 711.365 109.874 713.468 114.208 715.743 118.542 C 716.886 122.487 718.203 126.432 719.688 130.379 C 720.039 133.790 720.560 137.203 721.256 140.616 C 721.348 143.245 721.612 145.876 722.049 148.508 C 716.593 219.527 721.465 292.874 721.644 364.114 C 720.818 372.390 720.171 380.670 719.688 388.952 C 717.809 396.178 716.098 403.405 714.562 410.638 C 711.631 416.676 708.871 422.719 706.282 428.765 C 702.694 433.753 699.274 438.743 696.030 443.740 C 691.917 447.809 687.980 451.887 684.209 455.964 C 679.700 459.245 675.355 462.522 671.192 465.813 C 666.420 468.306 661.825 470.813 657.398 473.316 C 652.629 475.152 648.030 476.987 643.604 478.831 C 639.098 480.140 634.767 481.459 630.602 482.776 C 626.487 483.691 622.539 484.600 618.765 485.525 C 615.183 486.045 611.772 486.581 608.529 487.110 C 605.599 487.367 602.839 487.621 600.250 487.886 C 521.805 487.812 443.360 487.879 364.914 487.886 C 355.679 488.539 346.613 489.195 337.715 489.859 C 329.796 491.696 322.046 493.544 314.462 495.389 C 307.724 498.277 301.152 501.162 294.749 504.057 C 289.195 507.598 283.811 511.145 278.594 514.698 C 274.093 518.897 269.762 523.103 265.593 527.310 C 261.875 531.905 258.318 536.499 254.937 541.104 C 252.142 545.830 249.522 550.566 247.061 555.303 C 244.924 560.160 242.949 565.021 241.143 569.888 C 237.605 582.259 234.747 594.216 232.863 606.936 C 228.826 649.285 231.938 693.295 232.087 735.834 C 202.785 735.830 173.484 735.824 144.182 735.834 C 141.254 735.434 138.495 735.041 135.903 734.654 C 132.053 733.726 128.373 732.802 124.857 731.888 C 120.488 730.305 116.282 728.735 112.244 727.167 C 107.480 724.795 102.883 722.427 98.451 720.068 C 93.557 716.644 88.832 713.224 84.269 709.815 C 79.373 705.079 74.635 700.356 70.071 695.634 C 65.303 689.581 60.711 683.530 56.277 677.490 C 51.908 669.731 47.704 661.980 43.663 654.236 C 39.887 644.679 36.206 635.098 32.619 625.468 C 29.754 613.927 26.995 602.372 24.339 590.782 C 22.392 576.994 20.557 563.201 18.825 549.384 C 18.059 533.225 17.397 517.071 16.853 500.904 C 17.533 484.864 18.330 468.840 19.230 452.811 C 21.225 439.127 23.325 425.469 25.536 411.818 C 28.587 400.353 31.738 388.927 34.996 377.520 C 39.108 368.149 43.314 358.833 47.610 349.544 C 52.173 342.050 56.896 334.554 61.791 327.066 C 66.880 321.283 72.138 315.508 77.558 309.731 C 82.913 305.390 88.431 301.049 94.117 296.714 C 99.471 293.557 104.991 290.404 110.676 287.254 C 115.767 285.149 121.021 283.048 126.442 280.947 C 131.005 279.630 135.732 278.314 140.624 277.001 C 144.662 276.341 148.867 275.682 153.238 275.029 C 156.223 274.895 159.378 274.768 162.697 274.641 C 164.632 274.639 166.735 274.642 169.004 274.641 C 169.629 274.769 170.420 274.896 171.382 275.029 C 278.594 274.814 385.807 275.027 493.021 275.029 C 492.907 264.119 492.908 253.224 493.021 242.314 C 416.290 242.312 339.559 242.315 262.828 242.314 C 262.564 206.183 262.440 170.053 262.440 133.921 C 262.009 129.058 261.743 124.196 261.647 119.335 C 262.137 114.866 262.794 110.397 263.620 105.929 C 264.897 101.859 266.345 97.790 267.954 93.720 C 270.020 90.039 272.249 86.355 274.648 82.675 C 277.768 79.256 281.058 75.840 284.513 72.423 C 288.416 69.404 292.485 66.386 296.722 63.368 C 301.550 60.737 306.548 58.107 311.712 55.476 C 317.325 53.110 323.101 50.741 329.047 48.377 C 335.580 46.407 342.281 44.444 349.148 42.474 C 356.602 40.898 364.223 39.315 372.013 37.737 C 380.254 36.421 388.664 35.105 397.241 33.791 C 427.764 31.210 458.076 29.789 488.686 29.069 C 505.375 29.732 522.063 30.391 538.752 31.042 C 557.588 33.348 547.843 32.152 566.760 34.454 C 571.481 35.028 576.285 35.126 580.925 36.168 Z"/>
<path fill="#fede58" fill-rule="evenodd" stroke="none" d="M 848.586 269.918 C 852.088 270.706 855.766 271.491 859.615 272.280 C 863.647 273.852 867.851 275.423 872.228 277.001 C 876.654 279.363 881.251 281.733 886.022 284.101 C 890.581 287.646 895.314 291.190 900.220 294.741 C 904.774 299.335 909.500 303.934 914.402 308.535 C 918.826 314.709 923.420 320.888 928.195 327.066 C 932.227 334.816 936.444 342.564 940.825 350.320 C 944.406 359.956 948.074 369.545 951.854 379.105 C 954.502 390.697 957.264 402.251 960.133 413.791 C 961.859 427.474 963.694 441.132 965.647 454.784 C 966.187 470.952 966.846 487.106 967.621 503.264 C 966.717 519.422 965.931 535.576 965.260 551.745 C 963.043 565.395 960.941 579.053 958.952 592.738 C 955.689 604.015 952.539 615.311 949.492 626.648 C 945.190 635.934 940.987 645.250 936.880 654.624 C 931.973 662.110 927.239 669.602 922.681 677.101 C 917.252 683.008 911.997 688.922 906.914 694.841 C 901.224 699.169 895.699 703.500 890.356 707.842 C 884.667 710.987 879.155 714.143 873.813 717.302 C 868.384 719.399 863.128 721.498 858.046 723.609 C 853.140 724.787 848.408 725.975 843.848 727.167 C 839.471 727.818 835.266 728.478 831.235 729.139 C 827.909 729.393 824.755 729.647 821.775 729.916 C 819.500 729.777 817.397 729.651 815.468 729.528 C 707.463 729.579 599.457 729.521 491.452 729.528 C 491.339 740.307 491.339 751.074 491.452 761.853 C 568.183 761.847 644.914 761.852 721.644 761.853 C 721.640 802.780 720.572 843.964 722.841 884.833 C 722.013 889.293 721.355 893.761 720.869 898.239 C 719.253 902.300 717.807 906.369 716.534 910.448 C 714.127 914.250 711.886 918.059 709.824 921.880 C 706.368 925.158 703.088 928.450 699.976 931.745 C 695.730 934.891 691.653 938.043 687.750 941.205 C 682.587 943.821 677.595 946.444 672.776 949.080 C 666.819 951.306 661.037 953.547 655.425 955.791 C 648.554 957.752 641.852 959.715 635.324 961.693 C 627.530 963.391 619.911 965.100 612.459 966.820 C 603.879 967.995 595.472 969.185 587.232 970.377 C 577.737 971.287 568.411 972.197 559.256 973.126 C 549.138 973.639 539.021 974.173 528.904 974.711 C 517.865 974.835 506.825 974.960 495.786 975.099 C 479.098 974.570 462.409 974.054 445.720 973.530 C 431.661 971.698 417.604 969.848 403.547 968.000 C 391.718 965.389 379.889 962.771 368.068 960.125 C 358.468 956.868 348.880 953.575 339.300 950.260 C 331.382 946.309 323.630 942.370 316.046 938.439 C 309.966 934.096 304.052 929.764 298.306 925.438 C 293.670 920.961 289.201 916.493 284.901 912.033 C 281.450 907.556 278.170 903.086 275.053 898.627 C 272.786 894.284 270.681 889.951 268.746 885.625 C 267.263 881.677 265.949 877.736 264.801 873.805 C 264.104 870.508 263.575 867.220 263.216 863.940 C 262.258 854.357 262.231 858.692 262.828 850.939 C 262.700 780.773 262.679 710.608 262.828 640.442 C 263.319 632.027 263.976 623.618 264.801 615.216 C 266.341 608.116 268.053 601.023 269.927 593.935 C 272.520 587.881 275.281 581.834 278.206 575.791 C 281.453 570.795 284.859 565.801 288.443 560.816 C 292.218 556.605 296.167 552.404 300.279 548.203 C 304.447 545.047 308.779 541.893 313.281 538.744 C 317.711 536.109 322.307 533.476 327.075 530.852 C 331.504 529.007 336.102 527.172 340.868 525.338 C 345.040 524.018 349.378 522.701 353.886 521.392 C 369.099 518.353 361.740 519.645 375.960 517.462 C 385.945 516.515 381.476 516.888 389.365 516.282 C 466.096 516.285 542.827 516.281 619.558 516.282 C 628.453 515.620 637.520 514.964 646.757 514.309 C 654.336 512.462 662.087 510.616 670.011 508.779 C 676.410 506.013 682.980 503.254 689.723 500.499 C 694.937 496.818 700.321 493.141 705.878 489.470 C 710.044 485.261 714.386 481.058 718.896 476.857 C 722.272 472.256 725.818 467.657 729.536 463.064 C 731.994 458.326 734.627 453.595 737.427 448.866 C 739.224 444.135 741.190 439.406 743.330 434.684 C 744.473 430.081 745.788 425.484 747.276 420.890 C 748.024 416.682 748.951 412.478 750.041 408.276 C 750.395 404.592 750.913 400.910 751.609 397.232 C 751.700 394.468 751.966 391.709 752.401 388.952 C 752.269 348.746 752.258 308.540 752.401 268.333 C 779.860 268.332 807.318 268.351 834.776 268.333 C 836.446 268.462 838.289 268.588 840.307 268.722 C 842.322 268.856 845.866 269.306 848.586 269.918 Z"/>
<path fill="#ffffff" fill-rule="evenodd" stroke="none" d="M 332.589 114.209 C 329.401 118.541 326.386 122.876 323.534 127.210 C 322.316 132.600 321.263 137.990 320.380 143.381 C 321.263 148.765 322.317 154.149 323.534 159.536 C 326.387 164.002 329.400 168.474 332.589 172.942 C 336.757 175.832 341.100 178.716 345.607 181.609 C 350.823 182.790 356.207 183.982 361.762 185.167 C 366.984 183.982 372.374 182.792 377.932 181.609 C 382.098 178.717 386.432 175.829 390.934 172.942 C 393.788 168.471 396.812 164.003 400.005 159.536 C 400.887 154.150 401.939 148.765 403.159 143.381 C 401.939 137.990 400.889 132.599 400.005 127.210 C 396.813 122.875 393.787 118.543 390.934 114.209 C 386.431 111.320 382.098 108.431 377.932 105.541 C 372.374 104.355 366.984 103.166 361.762 101.983 C 356.207 103.166 350.823 104.358 345.607 105.541 C 341.100 108.432 336.758 111.317 332.589 114.209 Z"/>
<path fill="#ffffff" fill-rule="evenodd" stroke="none" d="M 593.539 831.614 C 590.346 835.943 587.334 840.286 584.483 844.632 C 583.265 850.009 582.211 855.394 581.330 860.787 C 582.211 866.169 583.263 871.559 584.483 876.958 C 587.333 881.283 590.349 885.617 593.539 889.959 C 597.706 892.975 602.046 895.998 606.557 899.031 C 611.771 900.073 617.157 901.125 622.711 902.184 C 627.929 901.125 633.320 900.075 638.882 899.031 C 643.045 896.000 647.378 892.972 651.883 889.959 C 654.734 885.615 657.761 881.284 660.956 876.958 C 661.836 871.560 662.885 866.169 664.108 860.787 C 662.885 855.394 661.834 850.009 660.956 844.632 C 657.759 840.285 654.737 835.945 651.883 831.614 C 647.380 828.587 643.044 825.570 638.882 822.559 C 633.320 821.500 627.929 820.449 622.711 819.406 C 617.157 820.449 611.772 821.503 606.557 822.559 C 602.048 825.572 597.704 828.584 593.539 831.614 Z"/>
</g>
</svg>
