<?xml version="1.0" encoding="utf-8"?>
<!-- Generator: Moho 13.0.3 build 643 -->
<!DOCTYPE svg PUBLIC "-//W3C//DTD SVG 1.1//EN" "http://www.w3.org/Graphics/SVG/1.1/DTD/svg11.dtd">
<svg version="1.1" id="Frame_5" xmlns="http://www.w3.org/2000/svg" xmlns:xlink="http://www.w3.org/1999/xlink" width="1000px" height="1000px">
<g id="Layer_21">
<path fill="#7348b7" fill-rule="evenodd" stroke="none" d="M 280.012 648.152 C 274.228 655.718 270.729 669.067 271.891 681.835 C 273.009 716.741 302.678 745.825 338.205 745.825 C 338.912 745.818 339.687 745.818 340.530 745.825 C 377.760 744.660 406.253 713.871 404.505 677.185 C 404.505 642.283 374.263 613.242 338.779 613.242 C 337.926 613.237 337.140 613.236 336.422 613.242 C 334.090 613.243 330.631 613.246 327.678 614.373 C 279.400 532.941 259.040 445.658 266.650 351.518 C 271.272 280.553 294.573 218.869 336.422 167.702 C 371.321 124.067 437.041 102.514 481.840 101.387 C 607.470 99.016 659.832 255.555 663.872 317.787 C 683.182 323.592 702.564 329.399 722.018 335.210 C 708.609 144.452 590.031 44.375 476.600 44.373 C 370.156 44.370 271.898 121.733 232.299 235.164 C 178.217 386.413 213.725 531.790 280.012 648.152 M 873.807 514.375 C 873.553 514.758 873.372 515.145 873.264 515.538 C 783.140 409.691 650.510 351.518 499.263 351.518 C 492.595 351.515 485.997 351.515 479.467 351.518 C 469.646 330.009 446.977 316.610 421.354 316.608 C 420.707 316.606 420.129 316.606 419.618 316.608 C 383.005 316.609 354.471 348.062 355.676 384.676 C 356.842 419.534 386.495 448.648 421.975 448.650 C 422.867 448.645 423.828 448.645 424.857 448.650 C 451.059 447.484 473.726 431.178 483.002 407.927 C 490.116 407.923 497.298 407.923 504.550 407.927 C 594.186 407.926 679.049 434.083 756.417 485.247 C 815.697 524.222 858.205 575.390 882.039 636.494 C 902.924 686.496 901.794 735.370 880.288 776.132 C 847.137 840.068 791.281 873.850 717.447 873.852 C 670.896 873.854 625.550 859.293 602.255 848.849 C 588.319 860.417 565.026 879.630 548.139 891.276 C 599.303 914.493 651.090 927.888 701.091 927.889 C 814.526 927.892 898.809 863.953 930.837 802.266 C 965.697 732.467 962.858 614.965 873.807 514.375 M 665.115 662.151 C 665.224 661.746 665.405 661.348 665.656 660.956 C 699.395 658.070 725.559 628.342 723.849 592.857 C 722.060 557.374 692.979 528.882 657.534 528.883 C 656.677 528.878 655.891 528.879 655.176 528.883 C 618.569 530.086 590.041 560.871 591.203 597.555 C 592.366 616.153 599.973 631.296 610.377 642.323 C 569.686 721.436 508.623 779.588 416.114 828.464 C 353.887 860.995 288.167 873.268 224.192 864.536 C 170.694 857.006 128.843 833.090 103.220 794.733 C 64.862 736.539 61.363 673.763 93.314 610.949 C 116.647 565.567 151.513 532.416 174.806 516.111 C 168.983 501.009 161.994 475.425 158.498 456.246 C -13.706 579.591 3.797 748.222 56.127 827.922 C 95.103 886.077 174.802 923.270 262.033 923.271 C 285.289 923.271 309.749 921.562 333.587 915.737 C 484.834 886.658 599.288 795.879 665.115 662.151 Z"/>
</g>
</svg>
