<?xml version="1.0" encoding="utf-8"?>
<!-- Generator: Moho 13.0.3 build 643 -->
<!DOCTYPE svg PUBLIC "-//W3C//DTD SVG 1.1//EN" "http://www.w3.org/Graphics/SVG/1.1/DTD/svg11.dtd">
<svg version="1.1" id="Frame_6" xmlns="http://www.w3.org/2000/svg" xmlns:xlink="http://www.w3.org/1999/xlink" width="1000px" height="1000px">
<g id="Layer_21">
<path fill="#c66395" fill-rule="evenodd" stroke="none" d="M 778.423 227.509 C 779.291 228.388 780.249 229.270 781.295 230.155 C 760.214 146.227 620.988 118.719 489.464 165.471 C 411.258 193.271 326.529 236.961 265.622 293.934 C 193.160 361.598 181.633 420.569 186.390 445.221 C 203.175 532.158 322.316 589.015 371.309 631.205 C 356.878 638.524 251.149 691.567 226.377 746.456 C 199.836 804.257 230.503 845.584 250.556 850.853 C 312.485 867.996 376.184 836.693 410.392 786.009 C 443.422 736.424 440.513 672.725 426.281 641.464 C 445.784 636.157 468.748 633.802 498.238 637.383 C 580.846 646.826 597.357 698.723 593.779 719.954 C 590.240 741.147 573.214 753.532 567.277 757.070 C 561.382 760.647 559.614 761.786 560.163 764.184 C 560.752 767.724 563.742 767.725 568.422 767.136 C 574.910 765.956 611.514 749.438 613.281 709.292 C 615.046 658.571 566.643 601.996 480.576 603.138 C 445.192 603.768 422.743 606.716 406.860 613.203 C 405.680 611.433 404.461 610.254 402.731 609.074 C 349.649 551.864 251.153 511.756 255.283 435.672 C 256.462 407.953 266.488 334.863 444.008 246.398 C 589.686 173.813 705.914 193.905 725.968 238.139 C 754.787 301.205 664.003 418.606 512.433 435.672 C 454.632 442.161 424.553 419.788 416.844 411.492 C 408.621 402.642 407.439 402.052 404.488 403.863 C 399.771 406.223 402.719 413.888 404.488 418.606 C 409.207 430.401 427.492 451.043 459.381 461.658 C 487.061 470.504 554.925 475.771 636.315 443.963 C 727.694 408.615 798.955 310.109 778.423 227.509 M 371.309 631.205 C 371.221 631.279 371.221 631.360 371.309 631.446 M 387.358 659.594 C 388.687 658.789 390.099 657.986 391.600 657.191 C 398.510 682.549 397.724 706.270 390.648 727.664 C 389.712 730.012 388.863 732.368 388.100 734.729 C 387.157 737.128 386.057 739.448 385.035 741.649 C 379.532 753.056 372.216 763.675 363.211 773.507 C 335.764 803.352 297.462 814.672 281.026 805.155 C 263.335 794.852 272.146 752.665 303.996 719.051 C 338.246 682.958 387.358 659.724 387.358 659.724 C 387.264 659.674 387.264 659.631 387.358 659.594 M 13.535 500.000 C 13.535 239.427 224.810 28.167 485.383 28.170 C 745.951 28.172 957.213 239.432 957.213 500.000 C 957.213 760.568 745.951 971.828 485.383 971.831 C 224.810 971.833 13.535 760.573 13.535 500.000 Z"/>
</g>
</svg>
