<?xml version="1.0" encoding="utf-8"?>
<!-- Generator: Moho 13.0.3 build 643 -->
<!DOCTYPE svg PUBLIC "-//W3C//DTD SVG 1.1//EN" "http://www.w3.org/Graphics/SVG/1.1/DTD/svg11.dtd">
<svg version="1.1" id="Frame_10" xmlns="http://www.w3.org/2000/svg" xmlns:xlink="http://www.w3.org/1999/xlink" width="1000px" height="1000px">
<g id="Layer_21">
<path fill="#000000" fill-rule="evenodd" stroke="none" d="M 613.149 525.265 C 565.685 524.698 518.260 524.469 470.797 524.573 C 415.534 609.474 358.693 693.467 303.424 778.326 C 408.982 696.800 509.404 608.999 613.149 525.265 M 525.547 478.039 C 580.812 393.180 637.611 309.458 692.839 224.561 C 587.520 306.283 486.670 393.417 383.629 477.653 C 430.778 478.317 478.162 478.275 525.547 478.039 M 493.292 98.191 C 493.167 98.180 493.171 98.173 493.292 98.159 C 447.823 98.115 402.745 106.732 360.491 123.565 C 196.580 180.995 82.007 353.484 97.960 527.275 C 104.034 741.948 310.635 923.187 524.406 901.865 C 749.192 895.320 933.331 669.832 896.294 447.986 C 876.974 247.658 687.114 97.882 493.292 98.159 M 742.686 99.686 C 668.920 54.181 582.257 31.335 495.752 31.687 C 456.444 31.798 417.253 36.771 379.159 46.495 C 195.720 92.075 50.144 258.269 31.487 446.684 C 8.360 624.988 98.433 810.662 252.709 902.733 C 404.046 997.508 609.122 993.664 757.319 893.986 C 890.464 807.517 973.353 649.870 968.411 490.854 C 966.135 333.447 877.871 180.545 742.686 99.686 Z"/>
</g>
</svg>
