<?xml version="1.0" encoding="utf-8"?>
<!-- Generator: Moho 13.0.3 build 643 -->
<!DOCTYPE svg PUBLIC "-//W3C//DTD SVG 1.1//EN" "http://www.w3.org/Graphics/SVG/1.1/DTD/svg11.dtd">
<svg version="1.1" id="Frame_12" xmlns="http://www.w3.org/2000/svg" xmlns:xlink="http://www.w3.org/1999/xlink" width="1000px" height="1000px">
<g id="Layer_21">
<path fill="#e38d1a" fill-rule="evenodd" stroke="none" d="M 659.688 719.531 C 630.036 719.851 607.148 702.936 607.329 638.416 C 607.502 577.055 628.871 552.498 659.688 552.823 C 690.182 553.144 710.965 576.842 710.005 638.416 C 709.183 691.072 689.005 719.215 659.688 719.531 M 735.320 773.477 C 735.314 773.474 699.864 752.522 682.348 742.175 C 675.087 744.280 667.735 745.311 660.380 745.396 C 617.996 745.892 572.218 731.331 572.366 639.107 C 572.506 551.924 616.595 526.454 660.380 526.958 C 703.523 527.454 746.444 551.993 744.968 639.107 C 744.244 681.820 730.415 710.216 711.340 726.477 C 724.327 734.129 749.710 749.134 749.714 749.136 C 749.712 749.139 735.321 773.475 735.320 773.477 Z"/>
<path fill="#e38d1a" fill-rule="evenodd" stroke="none" d="M 558.223 683.263 C 558.576 701.262 551.646 716.053 538.471 727.546 C 525.295 739.040 507.711 744.786 485.452 744.784 C 464.654 744.781 444.703 738.182 425.205 725.047 C 428.049 718.965 431.068 712.888 434.272 706.819 C 451.054 715.243 466.182 719.391 479.858 719.390 C 492.578 719.389 502.578 716.585 509.856 710.951 C 517.055 705.320 521.344 697.393 521.343 687.396 C 521.342 674.754 512.529 664.028 496.515 655.026 C 481.657 646.870 451.981 629.868 451.981 629.868 C 435.815 618.109 427.767 605.508 427.767 584.785 C 427.765 567.546 433.784 553.756 445.775 543.221 C 457.841 532.571 473.354 527.317 492.508 527.318 C 512.117 527.320 530.038 532.538 546.124 543.033 C 543.224 549.104 540.507 555.179 537.968 561.261 C 524.176 555.438 510.577 552.443 497.206 552.445 C 486.366 552.448 477.978 555.061 472.158 560.349 C 466.302 565.559 462.667 572.222 462.667 580.416 C 462.667 592.979 471.625 603.783 488.171 612.976 C 503.226 621.212 533.647 638.636 533.647 638.636 C 550.230 650.318 557.719 662.782 558.459 683.373 C 558.196 683.338 558.116 683.298 558.223 683.263 Z"/>
<path fill="#e38d1a" fill-rule="evenodd" stroke="none" d="M 875.001 741.939 C 841.236 741.933 807.656 741.933 774.258 741.939 C 774.076 671.325 774.077 600.718 774.258 530.116 C 785.379 530.111 796.681 530.111 808.169 530.116 C 807.985 592.039 807.984 653.966 808.169 715.901 C 830.262 715.894 852.539 715.894 875.001 715.901 C 874.816 724.574 874.816 733.253 875.001 741.939 Z"/>
<path fill="#00678f" fill-rule="evenodd" stroke="none" d="M 917.601 459.105 C 897.105 458.574 881.205 460.628 867.913 466.301 C 864.087 467.833 857.967 467.837 857.432 472.697 C 859.540 474.728 859.843 478.063 861.643 480.900 C 864.705 486.032 869.988 492.887 874.891 496.488 C 880.253 500.703 885.617 504.765 891.248 508.367 C 901.205 514.496 912.502 518.136 922.268 524.302 C 927.824 527.903 933.495 532.462 939.129 536.292 C 941.927 538.206 943.731 541.649 947.332 542.875 C 947.146 542.614 947.146 542.357 947.332 542.106 C 945.572 539.810 945.032 536.482 943.309 533.919 C 940.740 531.350 938.171 529.048 935.641 526.517 C 928.211 516.560 918.978 507.869 909.021 500.668 C 900.823 495.074 882.930 487.241 879.526 477.867 C 879.173 477.684 879.004 477.507 879.023 477.332 C 884.616 476.807 891.288 474.810 896.654 473.279 C 905.349 470.984 913.316 471.488 922.315 469.225 C 926.376 468.188 930.474 466.915 934.572 465.610 C 934.386 464.841 934.387 464.076 934.572 463.316 C 929.976 458.719 926.530 452.474 921.781 448.184 C 908.760 436.883 894.318 425.891 879.495 416.661 C 871.450 411.529 861.263 408.232 852.796 403.870 C 849.731 402.339 844.597 401.579 842.834 399.014 C 838.233 393.424 835.547 385.991 832.290 379.325 C 824.932 365.231 817.740 349.638 811.344 334.776 C 806.746 324.739 803.949 314.742 798.317 305.548 C 771.888 261.999 743.280 235.604 699.271 209.787 C 689.809 204.424 678.468 202.126 666.477 199.291 C 660.080 198.984 653.681 198.524 647.321 198.254 C 643.111 196.452 639.055 191.585 635.457 189.249 C 620.902 180.051 583.197 160.141 572.476 186.500 C 565.585 203.123 582.708 219.512 588.646 227.937 C 593.053 233.798 598.607 240.503 601.673 247.092 C 603.474 251.537 603.973 256.096 605.774 260.732 C 609.832 271.990 613.694 284.551 619.052 295.083 C 621.847 300.447 624.912 306.079 628.512 310.906 C 630.579 313.701 634.103 315.002 634.908 319.596 C 631.309 324.807 631.082 332.392 629.015 338.751 C 619.827 367.752 623.422 403.606 636.448 424.943 C 640.546 431.302 650.317 445.399 663.381 439.996 C 674.874 435.398 672.339 420.837 675.638 408.003 C 676.403 404.944 675.909 402.918 677.477 400.853 C 677.297 401.038 677.297 401.226 677.477 401.419 C 681.079 408.620 684.679 415.477 687.974 422.680 C 695.863 435.244 709.647 448.274 721.177 456.967 C 727.303 461.561 732.170 469.520 739.829 472.352 C 739.648 472.095 739.648 471.844 739.829 471.597 C 739.460 471.593 739.272 471.592 739.263 471.597 C 737.615 469.375 735.425 468.307 733.355 466.506 C 728.755 461.909 723.590 456.267 719.951 451.169 C 709.230 436.725 699.764 420.908 691.336 404.515 C 687.123 396.473 683.598 387.818 680.227 379.891 C 678.693 376.826 678.692 372.230 676.125 370.698 C 672.296 376.290 666.664 381.152 663.868 388.046 C 659.003 399.078 658.537 412.641 656.671 426.734 C 655.635 427.000 656.134 426.731 655.634 427.268 C 647.445 425.260 644.648 416.775 641.586 409.653 C 633.925 391.459 632.651 362.234 639.276 341.282 C 641.075 335.920 648.734 318.993 645.671 313.860 C 644.063 308.994 639.008 306.195 636.212 302.248 C 632.880 297.497 629.317 291.330 627.019 285.890 C 620.892 271.566 617.826 255.712 611.164 241.388 C 608.100 234.759 602.739 227.822 598.372 221.730 C 593.510 214.837 588.146 209.976 584.277 201.820 C 583.013 199.024 581.212 194.390 583.240 191.323 C 583.776 189.252 584.845 188.443 586.839 187.867 C 590.209 185.106 599.675 188.721 603.008 190.255 C 612.470 194.089 620.441 197.683 628.370 203.046 C 631.971 205.574 635.842 210.440 640.438 211.704 C 642.043 211.702 643.828 211.703 645.797 211.704 C 653.992 213.504 663.219 212.243 670.876 214.502 C 684.475 218.868 696.732 225.224 707.726 232.117 C 741.283 253.411 768.871 283.628 787.599 319.675 C 790.663 325.573 792.002 330.974 794.796 337.102 C 800.157 349.744 806.785 362.500 812.223 374.720 C 817.586 386.789 822.751 399.089 830.451 409.087 C 834.283 414.451 849.686 417.244 856.583 420.039 C 861.676 422.336 869.604 424.441 874.199 427.236 C 883.009 432.599 891.587 438.734 899.860 444.632 C 904.074 447.543 916.834 453.934 917.601 459.105 Z"/>
<path fill="#00678f" fill-rule="evenodd" stroke="none" d="M 656.404 236.564 C 651.999 236.572 649.010 237.094 645.907 237.821 C 645.722 237.986 645.723 238.154 645.907 238.324 C 645.904 238.322 646.080 238.322 646.441 238.324 C 648.511 242.307 652.039 245.212 654.644 248.773 C 656.712 252.871 658.486 256.962 660.537 261.030 C 660.535 260.839 660.713 260.651 661.071 260.465 C 664.683 257.948 666.445 253.876 666.445 247.705 C 664.916 245.905 664.683 244.107 663.381 242.346 C 661.847 239.780 658.556 238.512 656.483 236.486 C 656.267 236.510 656.242 236.535 656.404 236.564 Z"/>
<path fill="#00678f" fill-rule="evenodd" stroke="none" d="M 402.907 585.665 C 388.428 663.999 369.354 720.999 345.755 756.507 C 327.290 783.930 307.064 797.598 285.115 797.598 C 279.258 797.598 272.099 795.839 263.446 792.318 C 263.266 786.004 263.268 779.698 263.446 773.399 C 267.660 774.049 272.640 774.390 278.233 774.389 C 288.497 774.387 296.733 771.518 303.014 765.888 C 310.561 758.992 314.313 751.252 314.312 742.710 C 314.311 736.772 311.358 724.708 305.496 706.552 C 292.368 666.251 279.433 625.953 266.667 585.665 C 278.107 585.659 289.724 585.659 301.521 585.665 C 310.625 615.793 319.902 645.927 329.366 676.066 C 335.648 696.595 338.294 710.918 337.223 719.076 C 352.538 678.319 363.188 633.773 369.201 585.665 C 380.256 585.659 391.491 585.659 402.907 585.665 Z"/>
<path fill="#00678f" fill-rule="evenodd" stroke="none" d="M 213.538 741.939 C 212.387 682.107 208.816 625.875 203.183 573.015 C 202.909 573.010 202.810 573.009 202.885 573.015 C 184.701 629.317 166.701 685.624 148.876 741.939 C 139.693 741.933 130.689 741.933 121.864 741.939 C 103.812 685.625 85.943 629.317 68.247 573.015 C 67.936 573.009 67.803 573.009 67.854 573.015 C 63.911 623.692 61.424 680.000 60.390 741.939 C 49.424 741.933 38.633 741.932 28.020 741.939 C 30.128 666.633 35.381 596.000 43.734 530.116 C 58.239 530.111 72.921 530.111 87.780 530.116 C 104.648 582.002 121.690 633.895 138.913 685.794 C 138.835 685.787 138.941 685.787 139.228 685.794 C 156.248 633.895 173.441 582.002 190.816 530.116 C 204.618 530.110 218.598 530.111 232.757 530.116 C 242.028 607.299 247.475 677.971 249.162 741.939 C 237.109 741.932 225.235 741.932 213.538 741.939 Z"/>
</g>
</svg>
