<?xml version="1.0" encoding="utf-8"?>
<!-- Generator: Moho 13.0.3 build 643 -->
<!DOCTYPE svg PUBLIC "-//W3C//DTD SVG 1.1//EN" "http://www.w3.org/Graphics/SVG/1.1/DTD/svg11.dtd">
<svg version="1.1" id="Frame_17" xmlns="http://www.w3.org/2000/svg" xmlns:xlink="http://www.w3.org/1999/xlink" width="1000px" height="1000px">
<g id="Layer_21">
<path fill="#8ed5fa" fill-rule="evenodd" stroke="none" d="M 765.405 325.957 C 810.514 299.672 856.062 273.637 901.842 247.484 C 773.244 175.209 644.947 102.928 516.945 30.655 C 516.651 83.716 516.652 136.775 516.945 189.839 C 598.848 234.851 680.928 280.086 763.539 324.890 C 763.863 325.244 764.485 325.597 765.405 325.957 M 235.523 325.957 C 189.816 299.670 144.261 273.638 99.068 247.484 C 227.080 175.206 355.383 102.929 483.982 30.655 C 483.689 83.716 483.689 136.775 483.982 189.839 C 401.490 234.852 319.410 280.084 237.389 324.890 C 236.472 325.242 235.852 325.595 235.523 325.957 M 220.365 639.134 C 174.285 665.463 128.499 691.796 83.003 718.139 C 82.717 570.786 82.717 423.439 83.003 276.094 C 128.498 302.395 174.286 328.699 220.365 355.010 C 220.075 449.714 220.073 544.420 220.365 639.134 M 250.166 659.960 C 202.718 687.063 155.562 714.175 108.699 741.293 C 233.501 811.740 358.594 882.200 483.982 952.667 C 483.689 897.778 483.689 842.899 483.982 788.028 C 405.752 745.330 327.812 702.641 250.166 659.960 M 780.597 639.134 C 826.072 665.464 871.852 691.797 917.924 718.139 C 917.617 570.785 917.616 423.437 917.924 276.094 C 871.851 302.397 826.073 328.699 780.597 355.010 C 780.296 449.713 780.295 544.420 780.597 639.134 M 750.798 659.960 C 797.661 687.064 844.822 714.173 892.282 741.293 C 766.873 811.743 641.760 882.198 516.945 952.667 C 516.653 897.779 516.653 842.898 516.945 788.028 C 594.602 745.332 672.552 702.643 750.798 659.960 Z"/>
<path fill="#1c78c0" fill-rule="evenodd" stroke="none" d="M 500.526 478.262 C 423.024 433.867 345.823 389.466 268.913 345.077 C 345.823 302.801 423.028 260.525 500.526 218.253 C 577.417 260.525 654.602 302.802 732.087 345.077 C 654.603 389.465 577.421 433.867 500.526 478.262 M 516.945 506.676 C 516.652 587.974 516.650 669.276 516.945 750.587 C 593.546 708.484 670.438 666.384 747.635 624.296 C 747.335 540.872 747.338 457.454 747.635 374.042 C 670.440 418.248 593.547 462.461 516.945 506.676 M 483.982 506.676 C 483.702 587.974 483.711 669.276 484.018 750.587 C 406.810 708.481 329.898 666.385 253.275 624.296 C 252.983 540.872 252.982 457.454 253.275 374.042 C 329.886 418.249 406.786 462.458 483.982 506.676 Z"/>
</g>
</svg>
