<?xml version="1.0" encoding="utf-8"?>
<!-- Generator: Moho 13.0.3 build 643 -->
<!DOCTYPE svg PUBLIC "-//W3C//DTD SVG 1.1//EN" "http://www.w3.org/Graphics/SVG/1.1/DTD/svg11.dtd">
<svg version="1.1" id="Frame_2" xmlns="http://www.w3.org/2000/svg" xmlns:xlink="http://www.w3.org/1999/xlink" width="1000px" height="1000px">
<g id="Layer_21">
<path fill="#137fc1" fill-rule="evenodd" stroke="none" d="M 304.146 277.410 C 273.465 277.554 242.803 277.408 212.157 277.410 C 212.140 308.364 212.140 339.321 212.157 370.280 C 243.007 370.277 273.874 370.277 304.759 370.280 C 304.741 339.357 304.904 308.437 304.759 277.520 C 304.537 277.480 304.332 277.445 304.146 277.410 M 420.852 277.410 C 420.847 277.408 420.858 277.408 420.883 277.410 C 421.021 277.449 421.211 277.481 421.419 277.520 C 421.516 308.437 421.400 339.357 421.419 370.280 C 390.521 370.277 359.643 370.277 328.784 370.280 C 328.765 339.321 328.765 308.364 328.784 277.410 C 359.465 277.408 390.165 277.408 420.883 277.410 M 189.566 394.226 C 189.523 394.212 189.496 394.203 189.487 394.195 C 189.929 394.166 190.315 394.149 190.715 394.116 C 190.606 425.095 190.697 456.078 190.715 487.065 C 159.636 487.061 128.575 487.061 97.530 487.065 C 97.513 456.104 97.514 425.147 97.530 394.195 C 128.166 394.191 158.857 395.756 189.487 394.195 M 420.852 394.226 C 420.847 394.213 420.857 394.202 420.883 394.195 C 421.022 394.185 421.211 394.149 421.419 394.116 C 421.273 425.095 421.400 456.078 421.419 487.065 C 390.521 487.060 359.643 487.060 328.784 487.065 C 328.765 456.104 328.765 425.147 328.784 394.195 C 359.465 394.191 390.165 394.430 420.883 394.195 M 304.571 394.226 C 304.567 394.212 304.577 394.202 304.603 394.195 C 304.805 394.149 304.680 394.187 304.571 394.226 C 304.738 425.094 304.931 456.078 304.949 487.065 C 273.953 487.060 242.976 487.060 212.016 487.065 C 211.998 456.104 211.998 425.147 212.016 394.195 C 242.860 394.191 273.723 393.982 304.603 394.195 M 649.872 394.226 C 649.870 394.207 649.881 394.196 649.919 394.195 C 650.028 394.149 649.950 394.215 649.872 394.226 C 649.752 425.093 650.118 456.078 650.139 487.065 C 619.166 487.060 588.215 487.060 557.284 487.065 C 557.263 456.104 557.263 425.147 557.284 394.195 C 588.141 394.191 619.832 387.155 649.919 394.195 M 536.015 158.296 C 504.912 158.294 473.830 158.294 442.767 158.296 C 442.748 189.251 442.748 220.207 442.767 251.165 C 473.830 251.163 504.912 251.163 536.015 251.165 C 535.995 220.207 535.995 189.251 536.015 158.296 M 536.015 277.520 C 535.969 277.481 535.942 277.445 535.937 277.410 C 536.599 308.432 535.995 339.357 536.015 370.280 C 504.912 370.277 473.830 370.277 442.767 370.280 C 442.747 339.321 442.747 308.364 442.767 277.410 C 473.804 277.408 504.866 278.032 535.937 277.410 M 536.015 394.116 C 535.968 394.138 535.941 394.165 535.937 394.195 C 535.986 425.095 535.995 456.078 536.015 487.065 C 504.912 487.060 473.830 487.060 442.767 487.065 C 442.747 456.104 442.747 425.147 442.767 394.195 C 473.804 394.191 504.860 394.186 535.937 394.195 M 843.185 432.530 C 843.186 432.437 843.214 432.348 843.263 432.262 C 843.387 432.501 843.613 432.473 843.862 432.451 C 879.525 422.740 922.163 425.386 953.247 444.353 C 957.059 446.741 960.895 449.134 964.755 451.532 C 962.427 455.490 960.122 459.451 957.844 463.418 C 931.885 515.833 876.681 530.124 821.994 527.746 C 738.534 727.801 562.460 820.669 347.787 820.668 C 236.184 820.668 133.716 777.797 76.149 682.504 C 76.134 681.731 76.133 680.965 76.149 680.206 C 73.015 674.637 69.901 669.073 66.799 663.518 C 47.544 620.532 40.631 573.028 45.230 527.667 C 45.981 522.929 46.746 518.196 47.529 513.467 C 252.695 513.431 457.877 513.480 663.081 513.467 C 684.417 513.465 705.676 511.040 727.550 503.864 C 736.839 498.988 748.893 494.385 758.643 489.395 C 746.592 472.740 739.677 451.327 737.374 429.759 C 735.070 401.285 742.602 363.184 761.555 341.690 C 764.781 337.721 768.027 333.752 771.300 329.789 C 775.309 332.985 779.337 336.188 783.391 339.392 C 814.472 363.192 838.295 394.164 843.263 432.262 M 229.002 691.761 C 228.912 691.766 228.839 691.775 228.783 691.792 C 255.212 692.120 279.085 670.342 279.082 644.169 C 279.081 617.999 257.515 596.513 228.814 596.513 C 200.223 596.514 178.732 618.120 178.734 644.216 C 178.737 670.311 202.537 691.428 228.783 691.792 Z"/>
</g>
</svg>
