<?xml version="1.0" encoding="utf-8"?>
<!-- Generator: Moho 13.0.3 build 643 -->
<!DOCTYPE svg PUBLIC "-//W3C//DTD SVG 1.1//EN" "http://www.w3.org/Graphics/SVG/1.1/DTD/svg11.dtd">
<svg version="1.1" id="Frame_18" xmlns="http://www.w3.org/2000/svg" xmlns:xlink="http://www.w3.org/1999/xlink" width="1000px" height="1000px">
<g id="Layer_21">
<path fill="#f0db4f" fill-rule="evenodd" stroke="none" d="M 534.249 461.803 C 534.020 461.077 534.074 460.355 534.407 459.638 C 505.045 459.607 475.963 459.633 447.164 459.638 C 447.166 534.846 446.831 609.587 446.831 684.910 C 446.828 732.726 449.267 776.621 441.465 790.127 C 428.656 816.864 395.676 813.451 380.698 808.754 C 365.327 801.145 357.543 790.653 348.491 775.560 C 346.044 771.490 344.216 767.965 343.555 767.966 C 319.680 782.530 296.055 797.059 272.727 811.620 C 284.562 836.071 301.836 857.104 324.117 870.492 C 357.295 890.282 401.883 896.681 448.566 886.206 C 478.954 877.437 505.153 859.397 518.854 831.456 C 538.646 795.363 534.446 751.117 534.249 701.594 C 534.711 621.884 534.187 542.135 534.249 461.803 M 881.231 738.195 C 881.541 739.053 882.134 739.918 883.014 740.790 C 876.207 698.299 848.551 662.599 766.477 629.301 C 737.917 615.912 706.181 606.593 696.747 585.058 C 693.213 572.256 692.664 565.273 694.948 557.707 C 700.764 532.635 730.456 525.108 753.741 532.091 C 768.880 536.748 782.855 548.389 791.631 567.021 C 831.756 540.780 831.760 540.783 859.739 523.351 C 849.257 507.053 844.053 500.032 836.989 493.087 C 812.537 465.734 779.982 451.765 727.011 452.968 C 717.607 454.115 708.485 455.267 699.644 456.423 C 673.412 462.823 648.422 476.787 633.289 495.411 C 589.044 545.510 601.814 632.833 655.370 668.926 C 708.342 708.509 785.796 717.204 795.691 754.497 C 805.003 799.900 761.932 814.454 719.401 809.215 C 687.929 802.230 670.503 786.469 651.294 757.363 C 627.337 770.951 603.665 784.546 580.274 798.151 C 588.428 816.777 597.744 824.886 611.717 841.184 C 679.248 909.325 848.060 905.844 878.365 802.227 C 879.490 798.734 887.677 774.869 881.231 738.195 M 27.937 962.926 C 27.661 652.464 27.660 342.010 27.937 31.559 C 338.113 31.558 648.567 31.558 959.305 31.559 C 959.020 342.010 959.020 652.464 959.305 962.926 C 648.567 962.917 338.113 962.917 27.937 962.926 Z"/>
<path fill="none" stroke="#323330" stroke-width="1" stroke-linecap="butt" stroke-linejoin="round" d="M 883.014 740.790 C 876.207 698.299 848.551 662.599 766.477 629.301 "/>
<path fill="none" stroke="#323330" stroke-width="1" stroke-linecap="butt" stroke-linejoin="round" d="M 766.477 629.301 C 737.917 615.912 706.181 606.593 696.747 585.058 "/>
<path fill="none" stroke="#323330" stroke-width="1" stroke-linecap="butt" stroke-linejoin="round" d="M 696.747 585.058 C 693.213 572.256 692.664 565.273 694.948 557.707 "/>
<path fill="none" stroke="#323330" stroke-width="1" stroke-linecap="butt" stroke-linejoin="round" d="M 694.948 557.707 C 700.764 532.635 730.456 525.108 753.741 532.091 "/>
<path fill="none" stroke="#323330" stroke-width="1" stroke-linecap="butt" stroke-linejoin="round" d="M 753.741 532.091 C 768.880 536.748 782.855 548.389 791.631 567.021 "/>
<path fill="none" stroke="#323330" stroke-width="1" stroke-linecap="butt" stroke-linejoin="round" d="M 791.631 567.021 C 831.756 540.780 831.760 540.783 859.739 523.351 "/>
<path fill="none" stroke="#323330" stroke-width="1" stroke-linecap="butt" stroke-linejoin="round" d="M 859.739 523.351 C 849.257 507.053 844.053 500.032 836.989 493.087 "/>
<path fill="none" stroke="#323330" stroke-width="1" stroke-linecap="butt" stroke-linejoin="round" d="M 836.989 493.087 C 812.537 465.734 779.982 451.765 727.011 452.968 "/>
<path fill="none" stroke="#323330" stroke-width="1" stroke-linecap="butt" stroke-linejoin="round" d="M 727.011 452.968 C 717.607 454.115 708.485 455.267 699.644 456.423 "/>
<path fill="none" stroke="#323330" stroke-width="1" stroke-linecap="butt" stroke-linejoin="round" d="M 699.644 456.423 C 673.412 462.823 648.422 476.787 633.289 495.411 "/>
<path fill="none" stroke="#323330" stroke-width="1" stroke-linecap="butt" stroke-linejoin="round" d="M 633.289 495.411 C 589.044 545.510 601.814 632.833 655.370 668.926 "/>
<path fill="none" stroke="#323330" stroke-width="1" stroke-linecap="butt" stroke-linejoin="round" d="M 655.370 668.926 C 708.342 708.509 785.796 717.204 795.691 754.497 "/>
<path fill="none" stroke="#323330" stroke-width="1" stroke-linecap="butt" stroke-linejoin="round" d="M 795.691 754.497 C 805.003 799.900 761.932 814.454 719.401 809.215 "/>
<path fill="none" stroke="#323330" stroke-width="1" stroke-linecap="butt" stroke-linejoin="round" d="M 719.401 809.215 C 687.929 802.230 670.503 786.469 651.294 757.363 "/>
<path fill="none" stroke="#323330" stroke-width="1" stroke-linecap="butt" stroke-linejoin="round" d="M 651.294 757.363 C 627.337 770.951 603.665 784.546 580.274 798.151 "/>
<path fill="none" stroke="#323330" stroke-width="1" stroke-linecap="butt" stroke-linejoin="round" d="M 580.274 798.151 C 588.428 816.777 597.744 824.886 611.717 841.184 "/>
<path fill="none" stroke="#323330" stroke-width="1" stroke-linecap="butt" stroke-linejoin="round" d="M 611.717 841.184 C 679.248 909.325 848.060 905.844 878.365 802.227 "/>
<path fill="none" stroke="#323330" stroke-width="1" stroke-linecap="butt" stroke-linejoin="round" d="M 878.365 802.227 C 879.490 798.734 887.677 774.869 881.231 738.195 "/>
<path fill="none" stroke="#323330" stroke-width="1" stroke-linecap="butt" stroke-linejoin="round" d="M 881.231 738.195 C 881.541 739.053 882.134 739.918 883.014 740.790 "/>
<path fill="#323330" fill-rule="evenodd" stroke="none" d="M 883.014 740.790 C 876.207 698.299 848.551 662.599 766.477 629.301 C 737.917 615.912 706.181 606.593 696.747 585.058 C 693.213 572.256 692.664 565.273 694.948 557.707 C 700.764 532.635 730.456 525.108 753.741 532.091 C 768.880 536.748 782.855 548.389 791.631 567.021 C 831.756 540.780 831.760 540.783 859.739 523.351 C 849.257 507.053 844.053 500.032 836.989 493.087 C 812.537 465.734 779.982 451.765 727.011 452.968 C 717.607 454.115 708.485 455.267 699.644 456.423 C 673.412 462.823 648.422 476.787 633.289 495.411 C 589.044 545.510 601.814 632.833 655.370 668.926 C 708.342 708.509 785.796 717.204 795.691 754.497 C 805.003 799.900 761.932 814.454 719.401 809.215 C 687.929 802.230 670.503 786.469 651.294 757.363 C 627.337 770.951 603.665 784.546 580.274 798.151 C 588.428 816.777 597.744 824.886 611.717 841.184 C 679.248 909.325 848.060 905.844 878.365 802.227 C 879.490 798.734 887.677 774.869 881.231 738.195 C 881.541 739.053 882.134 739.918 883.014 740.790 Z"/>
<path fill="none" stroke="#323330" stroke-width="1" stroke-linecap="butt" stroke-linejoin="round" d="M 534.407 459.638 C 505.045 459.607 475.963 459.633 447.164 459.638 "/>
<path fill="none" stroke="#323330" stroke-width="1" stroke-linecap="butt" stroke-linejoin="round" d="M 447.164 459.638 C 447.166 534.846 446.831 609.587 446.831 684.910 "/>
<path fill="none" stroke="#323330" stroke-width="1" stroke-linecap="butt" stroke-linejoin="round" d="M 446.831 684.910 C 446.828 732.726 449.267 776.621 441.465 790.127 "/>
<path fill="none" stroke="#323330" stroke-width="1" stroke-linecap="butt" stroke-linejoin="round" d="M 441.465 790.127 C 428.656 816.864 395.676 813.451 380.698 808.754 "/>
<path fill="none" stroke="#323330" stroke-width="1" stroke-linecap="butt" stroke-linejoin="round" d="M 380.698 808.754 C 365.327 801.145 357.543 790.653 348.491 775.560 "/>
<path fill="none" stroke="#323330" stroke-width="1" stroke-linecap="butt" stroke-linejoin="round" d="M 348.491 775.560 C 346.044 771.490 344.216 767.965 343.555 767.966 "/>
<path fill="none" stroke="#323330" stroke-width="1" stroke-linecap="butt" stroke-linejoin="round" d="M 343.555 767.966 C 319.680 782.530 296.055 797.059 272.727 811.620 "/>
<path fill="none" stroke="#323330" stroke-width="1" stroke-linecap="butt" stroke-linejoin="round" d="M 272.727 811.620 C 284.562 836.071 301.836 857.104 324.117 870.492 "/>
<path fill="none" stroke="#323330" stroke-width="1" stroke-linecap="butt" stroke-linejoin="round" d="M 324.117 870.492 C 357.295 890.282 401.883 896.681 448.566 886.206 "/>
<path fill="none" stroke="#323330" stroke-width="1" stroke-linecap="butt" stroke-linejoin="round" d="M 448.566 886.206 C 478.954 877.437 505.153 859.397 518.854 831.456 "/>
<path fill="none" stroke="#323330" stroke-width="1" stroke-linecap="butt" stroke-linejoin="round" d="M 518.854 831.456 C 538.646 795.363 534.446 751.117 534.249 701.594 "/>
<path fill="none" stroke="#323330" stroke-width="1" stroke-linecap="butt" stroke-linejoin="round" d="M 534.249 701.594 C 534.711 621.884 534.187 542.135 534.249 461.803 "/>
<path fill="none" stroke="#323330" stroke-width="1" stroke-linecap="butt" stroke-linejoin="round" d="M 534.249 461.803 C 534.020 461.077 534.074 460.355 534.407 459.638 "/>
<path fill="#323330" fill-rule="evenodd" stroke="none" d="M 534.407 459.638 C 505.045 459.607 475.963 459.633 447.164 459.638 C 447.166 534.846 446.831 609.587 446.831 684.910 C 446.828 732.726 449.267 776.621 441.465 790.127 C 428.656 816.864 395.676 813.451 380.698 808.754 C 365.327 801.145 357.543 790.653 348.491 775.560 C 346.044 771.490 344.216 767.965 343.555 767.966 C 319.680 782.530 296.055 797.059 272.727 811.620 C 284.562 836.071 301.836 857.104 324.117 870.492 C 357.295 890.282 401.883 896.681 448.566 886.206 C 478.954 877.437 505.153 859.397 518.854 831.456 C 538.646 795.363 534.446 751.117 534.249 701.594 C 534.711 621.884 534.187 542.135 534.249 461.803 C 534.020 461.077 534.074 460.355 534.407 459.638 Z"/>
</g>
</svg>
