<?xml version="1.0" encoding="utf-8"?>
<!-- Generator: Moho 13.0.3 build 643 -->
<!DOCTYPE svg PUBLIC "-//W3C//DTD SVG 1.1//EN" "http://www.w3.org/Graphics/SVG/1.1/DTD/svg11.dtd">
<svg version="1.1" id="Frame_7" xmlns="http://www.w3.org/2000/svg" xmlns:xlink="http://www.w3.org/1999/xlink" width="1000px" height="1000px">
<g id="Layer_21">
<path fill="#58d4f6" fill-rule="evenodd" stroke="none" d="M 66.350 502.920 C 66.349 468.001 149.278 351.019 494.917 351.017 C 840.567 351.014 923.500 467.999 923.500 502.920 C 923.500 537.841 840.567 654.825 494.917 654.823 C 149.278 654.821 66.350 537.839 66.350 502.920 M 25.971 502.920 C 25.971 448.417 111.156 315.957 494.917 315.954 C 878.690 315.952 963.879 448.415 963.879 502.920 C 963.879 557.425 878.690 689.888 494.917 689.885 C 111.156 689.882 25.971 557.423 25.971 502.920 Z"/>
<path fill="#58d4f6" fill-rule="evenodd" stroke="none" d="M 281.219 131.427 C 311.488 114.015 454.240 127.566 626.592 427.168 C 798.950 726.779 738.900 857.000 708.630 874.413 C 678.361 891.825 535.603 878.272 363.249 578.658 C 190.902 279.055 250.951 148.839 281.219 131.427 M 261.085 96.426 C 308.328 69.249 465.622 77.038 656.984 409.684 C 848.352 742.340 776.011 882.234 728.766 909.413 C 681.520 936.592 524.221 928.801 332.857 596.141 C 141.500 263.493 213.841 123.604 261.085 96.426 Z"/>
<path fill="#58d4f6" fill-rule="evenodd" stroke="none" d="M 710.565 132.546 C 740.742 150.116 800.111 280.642 626.203 579.344 C 452.290 878.055 309.464 890.864 279.285 873.294 C 249.107 855.723 189.737 725.191 363.654 426.482 C 537.566 127.783 680.387 114.976 710.565 132.546 M 730.881 97.651 C 777.983 125.075 849.593 265.338 656.504 596.985 C 463.410 928.642 306.072 935.613 258.969 908.188 C 211.866 880.764 140.255 740.494 333.354 408.840 C 526.447 77.196 683.779 70.227 730.881 97.651 Z"/>
<path fill="#58d4f6" fill-rule="evenodd" stroke="none" d="M 495.302 419.029 C 541.713 419.029 579.152 456.468 579.152 502.879 C 579.152 549.290 541.713 586.729 495.302 586.729 C 448.891 586.730 411.451 549.290 411.451 502.879 C 411.451 456.468 448.891 419.028 495.302 419.029 Z"/>
</g>
</svg>
