<?xml version="1.0" encoding="utf-8"?>
<!-- Generator: Moho 13.0.3 build 643 -->
<!DOCTYPE svg PUBLIC "-//W3C//DTD SVG 1.1//EN" "http://www.w3.org/Graphics/SVG/1.1/DTD/svg11.dtd">
<svg version="1.1" id="Frame_15" xmlns="http://www.w3.org/2000/svg" xmlns:xlink="http://www.w3.org/1999/xlink" width="1000px" height="1000px">
<g id="Layer_21">
<linearGradient id="6ba695cc-a103-4bd6-93ed-797bb41f4389_0" x1="48.48%" y1="50.10%" x2="150.92%" y2="50.17%">
<stop offset="0.00%" style="stop-color:rgb(255,119,1);stop-opacity:1.00" />
<stop offset="100.00%" style="stop-color:rgb(255,159,0);stop-opacity:1.00" />
</linearGradient>
<path fill="url(#6ba695cc-a103-4bd6-93ed-797bb41f4389_0)" fill-rule="evenodd" stroke="none" d="M 70.667 462.875 C 70.437 393.536 70.438 324.201 70.667 254.869 C 203.877 177.679 337.320 100.495 470.996 23.308 C 470.759 337.280 470.747 651.252 470.996 965.235 C 417.120 933.829 363.479 902.434 310.069 871.046 C 309.831 687.887 309.837 504.737 310.069 321.591 C 230.038 368.681 150.237 415.775 70.667 462.875 M 671.146 427.550 C 710.156 449.787 749.405 472.026 788.890 494.272 C 789.960 555.754 791.274 617.243 792.819 678.738 C 752.024 655.182 711.468 631.631 671.146 608.088 C 670.909 695.733 670.909 783.386 671.146 871.046 C 617.272 902.434 563.636 933.829 510.234 965.235 C 510.002 651.252 510.001 337.280 510.234 23.308 C 643.442 100.495 776.883 177.679 910.563 254.869 C 910.323 324.201 910.322 393.536 910.563 462.875 C 830.519 415.774 750.713 368.681 671.146 321.591 C 670.909 356.907 670.908 392.226 671.146 427.550 Z"/>
</g>
</svg>
